<svg width="158" height="361" viewBox="0 0 158 361" fill="none" xmlns="http://www.w3.org/2000/svg">
<path d="M45.7604 53.3021C47.3438 52.1667 44.099 47.1042 42.6667 48.1615C31.4271 55.7917 23.6563 67.125 20.4115 80.276C20.0313 81.9375 23.6563 86.4688 24.2604 84.0521C27.4271 71.5104 35.1198 60.6302 45.7604 53.3021Z" fill="white"/>
<path d="M85.2934 165.318C85.2205 163.885 82.9549 163.885 83.033 165.245C84.1632 190.781 74.8871 215.865 78.2049 241.406C81.3715 265.807 100.382 289.234 92.0121 314.469C91.559 315.828 93.7465 316.432 94.1996 315.073C102.418 290.292 84.9184 267.625 80.8455 243.896C76.3924 217.682 86.4288 191.615 85.2934 165.318Z" fill="#C9C6BC"/>
<path d="M132.523 85.4531C126.408 46.9218 96.46 19.7187 65.7569 24.5573C35.0538 29.3906 14.9861 64.677 21.0955 103.135C26.4548 136.984 58.9653 160.635 79.8663 163.885L78.658 168.115L85.5955 166.906L90.2725 168.49L89.0694 163.807C110.34 159.276 138.481 123.307 132.523 85.4531Z" fill="#FF917B"/>
<path d="M42.6545 102.199C43.0069 101.96 43.3102 101.682 43.5684 101.363C43.8226 101.047 44.0121 100.711 44.1389 100.359C44.2597 100.006 44.3081 99.6641 44.2781 99.3334C44.2539 99.0028 44.1515 98.7085 43.9746 98.4477C32.1576 81.0287 38.59 57.474 58.9381 43.6699C59.2847 43.4306 59.5801 43.1497 59.8285 42.8332C60.0768 42.5166 60.2585 42.1861 60.3774 41.8389C60.4944 41.4887 60.5369 41.1553 60.5088 40.8274C60.4768 40.5022 60.3763 40.2107 60.2034 39.9558C60.0304 39.7008 59.7968 39.4997 59.5064 39.3497C59.2121 39.2025 58.8865 39.1187 58.5199 39.1008C58.1534 39.083 57.7771 39.1267 57.3912 39.2404C57.0052 39.3542 56.637 39.5278 56.2846 39.7584C53.5263 41.6339 50.9505 43.7028 48.5497 45.9704C46.1468 48.2351 43.9794 50.6447 42.0456 53.1962C40.1137 55.7507 38.4604 58.3869 37.0816 61.1077C35.7047 63.8314 34.6337 66.576 33.8725 69.3475C30.5324 80.9339 32.2339 92.5524 38.6771 102.05C38.8559 102.305 39.0915 102.509 39.3917 102.657C39.688 102.807 40.0233 102.888 40.3977 102.901C40.7682 102.916 41.1504 102.864 41.5422 102.742C41.934 102.62 42.3041 102.441 42.6545 102.199Z" fill="white" fill-opacity="0.5"/>
</svg>
