<svg width="141" height="386" viewBox="0 0 141 386" fill="none" xmlns="http://www.w3.org/2000/svg">
<mask id="mask0_1_75" style="mask-type:luminance" maskUnits="userSpaceOnUse" x="0" y="0" width="141" height="174">
<path d="M0 0H140.661V173.333H0V0Z" fill="white"/>
</mask>
<g mask="url(#mask0_1_75)">
<path d="M0.390625 80.1875C0.390625 126.667 31.7188 173.286 70.3594 173.286C109.005 173.286 140.333 126.667 140.333 80.1875C140.333 33.7031 109.005 0 70.3594 0C31.7135 0 0.390625 33.7031 0.390625 80.1875Z" fill="#FC4E4E"/>
</g>
<path d="M15.8333 77.2969C16.3021 77.2969 16.75 77.2083 17.1823 77.0313C17.6094 76.8542 17.9896 76.599 18.3229 76.2708C18.651 75.9375 18.9062 75.5573 19.0833 75.125C19.2656 74.6979 19.3541 74.25 19.3541 73.7813C19.3541 42.4687 39.7708 18.8437 66.8385 18.8437C67.3021 18.8385 67.7448 18.7396 68.1666 18.5573C68.5885 18.375 68.9583 18.1198 69.2812 17.7917C69.6041 17.4583 69.8489 17.0833 70.026 16.6563C70.1979 16.2292 70.2864 15.7865 70.2864 15.3281C70.2864 14.8698 70.1979 14.4271 70.026 14C69.8489 13.5729 69.6041 13.1979 69.2812 12.8698C68.9583 12.5417 68.5885 12.2813 68.1666 12.099C67.7448 11.9167 67.3021 11.8229 66.8385 11.8125C63.1666 11.8177 59.5416 12.2135 55.9531 13C52.3646 13.7813 48.901 14.9375 45.5625 16.4635C42.2239 17.9948 39.0885 19.8594 36.151 22.0573C33.2135 24.2604 30.5416 26.7448 28.1354 29.5208C17.9323 40.9948 12.3021 56.7188 12.3021 73.7917C12.3073 74.2552 12.3958 74.7031 12.5781 75.1354C12.7552 75.5677 13.0104 75.9479 13.3437 76.276C13.6719 76.6042 14.0521 76.8594 14.4844 77.0365C14.9166 77.2135 15.3646 77.3021 15.8333 77.2969Z" fill="white" fill-opacity="0.5"/>
<path d="M69.5573 178.771C69.5573 173.234 63.6719 172.026 63.6719 172.026H81.3073C81.3073 172.026 75.4219 173.234 75.4219 178.771C75.4219 184.307 81.3073 186.26 81.3073 186.26H63.6719C63.6719 186.26 69.5573 184.302 69.5573 178.771Z" fill="#FC4E4E"/>
<path d="M72.5156 181.354C72.5938 181.354 72.6719 181.354 72.7448 181.354C74.1875 181.193 75.3594 180.547 76.2604 179.406C76.4375 179.177 76.5052 178.917 76.4635 178.63C76.4219 178.344 76.2865 178.109 76.0573 177.937C75.8281 177.76 75.5677 177.693 75.2813 177.729C74.9948 177.771 74.7604 177.906 74.5833 178.135C74.0781 178.771 73.4219 179.141 72.6198 179.255C71.6719 179.198 70.9063 178.797 70.3229 178.052C70.1198 177.844 69.875 177.734 69.5885 177.724C69.2969 177.719 69.0469 177.812 68.8333 178.01C68.625 178.208 68.5156 178.453 68.5052 178.745C68.5 179.031 68.5938 179.281 68.7917 179.495C69.2552 180.052 69.8073 180.495 70.4583 180.818C71.1094 181.141 71.7917 181.318 72.5156 181.354Z" fill="#5A7878"/>
<mask id="mask1_1_75" style="mask-type:luminance" maskUnits="userSpaceOnUse" x="63" y="178" width="28" height="208">
<path d="M63.3906 178.667H90.0573V385.073H63.3906V178.667Z" fill="white"/>
</mask>
<g mask="url(#mask1_1_75)">
<path d="M74.4479 385.052C74.625 385.052 74.7916 385.01 74.9427 384.927C75.5625 384.599 90 376.297 90 337.057C90 314.297 81.8958 297.547 75.3802 284.083C70.5364 274.063 66.3489 265.411 66.3489 256.708C66.3489 246.01 69.9687 238.818 73.4687 231.859C76.8593 225.125 80.0573 218.771 80.0573 209.755C80.0573 191.479 73.6718 180.245 73.3958 179.776C73.25 179.531 73.0364 179.375 72.7604 179.302C72.4843 179.234 72.2239 179.271 71.9739 179.411C71.7291 179.552 71.5677 179.76 71.4895 180.036C71.4114 180.313 71.4427 180.573 71.5781 180.823C71.6406 180.938 77.9531 192.078 77.9531 209.755C77.9531 218.271 74.8645 224.411 71.5885 230.911C67.9791 238.089 64.2448 245.516 64.2448 256.708C64.2448 265.891 68.526 274.745 73.4843 285C80.2395 298.958 87.8906 314.781 87.8906 337.057C87.8906 374.849 74.0677 383.005 73.9323 383.083C73.7187 383.198 73.5677 383.37 73.4739 383.589C73.3802 383.807 73.3593 384.036 73.4218 384.266C73.4791 384.5 73.6041 384.688 73.7968 384.833C73.9843 384.979 74.1979 385.052 74.4427 385.052H74.4479Z" fill="#5A7878"/>
</g>
</svg>
