<svg width="122" height="282" viewBox="0 0 122 282" fill="none" xmlns="http://www.w3.org/2000/svg">
<path d="M40.3734 281.24C39.8704 281.24 39.3675 281.039 38.9954 280.643C38.4311 280.046 38.333 279.179 38.6847 278.488C38.7542 278.259 38.8891 277.924 39.1753 277.613C39.2694 277.482 39.3879 277.318 39.5678 277.147C39.711 277.012 39.8622 276.909 40.0054 276.832C40.079 276.734 40.1607 276.636 40.2589 276.546C40.4061 276.407 40.5614 276.3 40.7127 276.218C40.7781 276.129 40.8599 276.039 40.954 275.949C41.0235 275.883 41.093 275.826 41.1584 275.777C41.2484 275.613 41.3792 275.433 41.5591 275.262C41.6736 275.151 41.7963 275.065 41.9108 274.992C41.9925 274.873 42.0907 274.751 42.2133 274.636C42.475 274.391 42.749 274.256 42.933 274.178C42.9657 274.158 42.9984 274.137 43.027 274.117C43.1006 274.019 43.1947 273.912 43.3091 273.802C43.4318 273.687 43.5586 273.593 43.6771 273.524C43.7671 273.303 43.9225 273.025 44.1923 272.767L44.5235 272.453C44.7321 272.256 44.9406 272.134 45.0755 272.06C45.141 272.011 45.2023 271.962 45.2718 271.913C45.3781 271.782 45.4681 271.68 45.5662 271.586C45.6316 271.52 45.7011 271.463 45.7747 271.402C45.8647 271.255 45.9873 271.079 46.1673 270.907C46.4003 270.678 46.6538 270.539 46.8869 270.457C46.9033 270.441 46.9196 270.425 46.936 270.408C47.0954 270.253 47.2508 270.147 47.3653 270.073C47.3898 270.044 47.4103 270.02 47.4307 269.991C47.4798 269.909 47.5411 269.807 47.6188 269.697C47.7088 269.513 47.8478 269.259 48.0931 269.018C48.1872 268.928 48.2812 268.846 48.3752 268.769L48.4407 268.711C48.5511 268.601 48.686 268.495 48.8209 268.396C48.8332 268.388 48.8087 268.413 48.7841 268.433C48.9804 268.245 49.1726 268.123 49.2952 268.049C49.3239 268.02 49.3566 267.996 49.3852 267.971C49.467 267.832 49.5855 267.66 49.7491 267.497C49.8145 267.432 49.884 267.374 49.9494 267.321C50.0394 267.149 50.158 266.974 50.3215 266.81C50.4524 266.675 50.5873 266.573 50.7222 266.491C50.7918 266.389 50.8735 266.287 50.9717 266.184C51.0616 266.066 51.1557 265.947 51.262 265.841C51.4501 265.649 51.6504 265.518 51.8426 265.424C51.9244 265.26 52.0429 265.076 52.2147 264.896C52.3046 264.806 52.3987 264.729 52.4886 264.659C52.5663 264.516 52.6726 264.369 52.8076 264.226C52.9302 264.091 53.0611 263.989 53.1919 263.907C53.2573 263.805 53.335 263.698 53.4332 263.596C53.5027 263.518 53.5722 263.449 53.6458 263.379C53.6785 263.343 53.7153 263.31 53.7439 263.277C53.9279 263.085 54.116 262.95 54.2632 262.86C54.3123 262.803 54.3654 262.742 54.4186 262.684C54.4595 262.639 54.5003 262.598 54.5412 262.558C54.623 262.361 54.7416 262.149 54.9215 261.944C55.0973 261.752 55.2731 261.621 55.3917 261.539C55.4162 261.511 55.4449 261.486 55.4694 261.458L55.5798 261.339C55.7393 261.159 55.9069 261.028 56.0418 260.938C56.0991 260.865 56.1563 260.791 56.2177 260.718C56.3894 260.521 56.5693 260.386 56.7206 260.292C56.7901 260.125 56.9005 259.916 57.0763 259.708L57.1131 259.655C57.1867 259.552 57.2603 259.45 57.3421 259.352L57.3953 259.278C57.4607 259.184 57.5343 259.09 57.6079 259C57.6896 258.865 57.7714 258.747 57.8614 258.636C58.0413 258.416 58.2416 258.26 58.4093 258.158C58.442 258.076 58.4788 257.994 58.5238 257.909C58.5892 257.729 58.6955 257.471 58.8959 257.209C59.0553 257.001 59.2393 256.85 59.4111 256.739C59.4438 256.686 59.4806 256.633 59.5215 256.58C59.6646 256.392 59.8159 256.253 59.9467 256.15C59.9958 256.065 60.0448 255.991 60.098 255.917C60.1103 255.901 60.1225 255.885 60.1389 255.868C60.1879 255.627 60.2861 255.361 60.4701 255.1C60.6786 254.809 60.9239 254.621 61.1366 254.498C61.1734 254.237 61.2633 253.946 61.4555 253.656C61.6068 253.431 61.7703 253.272 61.8766 253.174C62.0116 253.006 62.1465 252.879 62.2487 252.798C62.2978 252.736 62.3469 252.675 62.4 252.618C62.4 252.618 62.3918 252.63 62.3796 252.65C62.4205 252.585 62.4654 252.524 62.5104 252.47C62.5554 252.291 62.6331 252.094 62.7557 251.894C62.8048 251.808 62.8621 251.722 62.9193 251.636C62.9438 251.604 62.9684 251.567 62.9888 251.53C63.0583 251.424 63.1237 251.326 63.1892 251.248C63.2341 251.097 63.2996 250.929 63.3977 250.757C63.4836 250.606 63.5817 250.479 63.6798 250.373C63.7084 250.275 63.7493 250.177 63.8025 250.07C63.872 249.886 63.9333 249.739 64.0069 249.604L64.1991 249.216C64.2604 249.101 64.3259 248.995 64.3954 248.889L64.4363 248.823C64.5303 248.639 64.6407 248.492 64.7266 248.386C64.7552 248.316 64.7797 248.251 64.8083 248.185C64.8492 248.038 64.9024 247.866 64.9964 247.67C65.1068 247.437 65.2377 247.261 65.3154 247.159C65.3931 247.02 65.483 246.897 65.5648 246.799C65.5771 246.611 65.6139 246.398 65.7038 246.169C65.7529 245.977 65.7978 245.826 65.8592 245.679C65.9328 245.503 66.0227 245.352 66.1168 245.225C66.1413 245.119 66.174 245.004 66.219 244.89C66.313 244.64 66.4398 244.452 66.5175 244.338C66.5584 244.248 66.6034 244.17 66.6442 244.101C66.632 243.884 66.6402 243.577 66.7587 243.238C66.8814 242.874 67.0817 242.612 67.2535 242.436L67.3475 242.134C67.2944 241.868 67.2821 241.533 67.3884 241.165C67.4497 240.94 67.5397 240.76 67.601 240.641C67.6051 240.633 67.6051 240.625 67.6092 240.617C67.6297 240.523 67.6501 240.433 67.6746 240.343C67.6992 240.241 67.7319 240.134 67.7687 240.032C67.7769 239.995 67.7891 239.963 67.8014 239.926C67.8423 239.77 67.8954 239.631 67.9568 239.509C67.9609 239.378 67.9731 239.235 68.0099 239.088C68.059 238.875 68.1367 238.691 68.2225 238.536C68.1898 238.323 68.1857 238.074 68.2389 237.8C68.2839 237.575 68.3534 237.395 68.3943 237.288C68.3902 237.293 68.382 237.338 68.3738 237.387C68.4229 237.137 68.4965 236.945 68.5456 236.822C68.5496 236.806 68.5578 236.786 68.5619 236.769C68.5251 236.569 68.5169 236.34 68.5578 236.086C68.5783 235.972 68.6028 235.866 68.6355 235.767C68.6151 235.6 68.611 235.416 68.6396 235.215C68.6478 235.162 68.6519 235.109 68.656 235.056C68.6682 234.966 68.6764 234.872 68.6887 234.782C68.7214 234.541 68.7868 234.345 68.8236 234.226C68.8808 233.927 68.9912 233.69 69.0812 233.535C69.0853 233.514 69.0894 233.498 69.0976 233.482C69.0853 233.359 69.0853 233.224 69.1016 233.069C69.1057 233.003 69.1139 232.938 69.1262 232.877C69.0771 232.684 69.0485 232.451 69.0689 232.186C69.0894 231.94 69.1425 231.74 69.1875 231.605C69.1221 231.396 69.0812 231.147 69.0976 230.869C69.1098 230.603 69.1712 230.382 69.2325 230.215C69.2325 230.141 69.2325 230.068 69.2366 229.994C69.2448 229.74 69.2979 229.524 69.3552 229.356C69.3511 229.27 69.3511 229.193 69.3511 229.115C69.3511 229.099 69.3511 229.086 69.3552 229.074C69.2529 228.841 69.1752 228.559 69.1793 228.228C69.1834 228.056 69.2039 227.9 69.2366 227.761C69.212 227.635 69.1957 227.496 69.1957 227.344C69.1957 227.038 69.257 226.784 69.3102 226.617C69.3143 226.555 69.3224 226.494 69.3306 226.428C69.3347 226.392 69.3347 226.428 69.3347 226.445C69.3347 226.424 69.3347 226.4 69.3347 226.379C69.2407 226.171 69.1589 225.897 69.1507 225.574C69.1466 225.386 69.163 225.214 69.1998 225.059C69.1834 224.989 69.1671 224.912 69.1589 224.83C69.1221 224.678 69.0771 224.482 69.0648 224.245C69.0485 223.832 69.1507 223.497 69.2693 223.247C69.2529 223.133 69.2366 223.018 69.2325 222.904C69.2284 222.859 69.2243 222.81 69.2243 222.765C69.1303 222.569 69.0485 222.319 69.028 222.021C69.0158 221.89 69.0199 221.767 69.024 221.661C68.9749 221.514 68.934 221.338 68.9136 221.138C68.8972 220.921 68.9095 220.729 68.9381 220.569C68.9136 220.471 68.8931 220.361 68.8808 220.242C68.8686 220.103 68.8686 219.976 68.8686 219.874C68.8236 219.731 68.7745 219.559 68.7541 219.355C68.7214 219.056 68.7582 218.799 68.7868 218.631C68.7868 218.615 68.7868 218.598 68.7868 218.578C68.7296 218.431 68.6723 218.239 68.6437 218.018C68.6151 217.781 68.6273 217.58 68.6314 217.462C68.6314 217.47 68.6355 217.519 68.6437 217.568C68.611 217.306 68.6232 217.09 68.6355 216.955C68.6314 216.869 68.6273 216.779 68.6232 216.693L68.6192 216.628C68.611 216.57 68.6028 216.484 68.5905 216.394V216.374C68.5292 216.223 68.4597 216.026 68.4229 215.781C68.4188 215.732 68.4106 215.683 68.4024 215.63C68.3084 215.45 68.2062 215.209 68.1571 214.91C68.1081 214.591 68.1408 214.305 68.198 214.076C68.1448 213.937 68.0876 213.765 68.0508 213.561L68.0385 213.491C67.9159 213.295 67.7891 213.033 67.7319 212.702C67.6951 212.486 67.6951 212.281 67.7155 212.105C67.6828 212.015 67.6542 211.913 67.6337 211.803C67.601 211.623 67.5969 211.451 67.6051 211.3C67.5683 211.206 67.5356 211.103 67.507 210.989C67.4416 210.801 67.3966 210.658 67.368 210.506C67.3025 210.212 67.3148 209.955 67.3312 209.779C67.3271 209.758 67.3271 209.742 67.323 209.721L67.3148 209.664C67.278 209.566 67.2453 209.48 67.2208 209.398C67.1472 209.255 67.0531 209.059 66.9877 208.814L66.8855 208.393C66.8569 208.278 66.8323 208.164 66.8119 208.049L66.6729 207.554C66.6524 207.489 66.6361 207.424 66.6238 207.366C66.5093 207.207 66.3989 207.006 66.3212 206.761C66.219 206.438 66.2149 206.156 66.219 205.972C66.1945 205.804 66.1904 205.649 66.1986 205.518L66.1699 205.444C66.125 205.322 66.0922 205.187 66.0595 205.056L65.9778 204.827C65.8755 204.692 65.7488 204.5 65.6506 204.251L65.622 204.193C65.6139 204.177 65.6057 204.161 65.5975 204.144C65.4707 203.997 65.3113 203.789 65.1968 203.506C65.1518 203.396 65.1109 203.294 65.0741 203.183L65.0046 203.02C64.9637 202.942 64.9228 202.86 64.886 202.783C64.7797 202.615 64.702 202.48 64.6366 202.341C64.5916 202.235 64.5507 202.133 64.5099 202.03L64.4731 201.936C64.3995 201.781 64.3545 201.63 64.3218 201.495C64.2523 201.401 64.1787 201.286 64.1132 201.155C63.9988 200.922 63.9415 200.697 63.917 200.493C63.7902 200.362 63.6553 200.198 63.5449 199.99L63.3404 199.61C63.2464 199.434 63.1892 199.274 63.1483 199.139C63.091 199.066 63.0338 198.984 62.9765 198.89C62.8539 198.735 62.7639 198.608 62.6903 198.477C62.5717 198.277 62.5022 198.08 62.4613 197.896C62.3101 197.77 62.1424 197.598 61.9993 197.369C61.8685 197.156 61.7908 196.944 61.7458 196.748C61.7172 196.711 61.6885 196.674 61.6599 196.633C61.5291 196.482 61.431 196.359 61.3492 196.228C61.1979 195.999 61.112 195.77 61.063 195.574C60.9198 195.46 60.7726 195.308 60.6418 195.116L60.5764 195.03C60.5069 194.944 60.4374 194.854 60.376 194.764L60.3392 194.724C60.2575 194.621 60.1757 194.523 60.1021 194.417L59.8486 194.053C59.775 193.951 59.7177 193.844 59.6687 193.75C59.546 193.648 59.4192 193.517 59.3007 193.354C59.2761 193.321 59.2516 193.288 59.223 193.256C59.1575 193.174 59.0921 193.092 59.0308 193.006C58.8795 192.798 58.7855 192.589 58.7241 192.397C58.5565 192.282 58.3888 192.131 58.2376 191.931C58.1353 191.792 58.0495 191.645 57.9677 191.493C57.9636 191.489 57.9759 191.502 57.9881 191.522C57.8614 191.346 57.7714 191.166 57.7142 190.999C57.6488 190.933 57.5874 190.864 57.5261 190.786L57.2971 190.475C57.154 190.336 57.0477 190.222 56.9496 190.095C56.7615 189.846 56.6552 189.6 56.5979 189.424C56.5857 189.408 56.5734 189.392 56.5652 189.375L56.5121 189.294C56.4916 189.273 56.4753 189.249 56.4589 189.228C56.2504 189.11 56.0255 188.934 55.8292 188.68C55.7638 188.598 55.7025 188.513 55.6452 188.427L55.5634 188.312C55.4735 188.198 55.3958 188.075 55.3222 187.948C55.2077 187.797 55.1178 187.646 55.0319 187.486C55.0319 187.486 55.0401 187.499 55.0523 187.511C55.0237 187.474 54.9992 187.437 54.9746 187.404C54.7866 187.286 54.5903 187.122 54.4186 186.897C54.2387 186.66 54.1405 186.435 54.0833 186.288C54.026 186.198 53.9811 186.108 53.9443 186.022C53.748 185.904 53.5068 185.724 53.2982 185.442C53.1306 185.217 53.0324 184.988 52.9711 184.771C52.9507 184.747 52.9302 184.722 52.9098 184.698C52.7994 184.587 52.6726 184.456 52.5459 184.281C52.4028 184.084 52.3128 183.884 52.2515 183.712C52.2065 183.663 52.1615 183.61 52.1165 183.553C52.0102 183.442 51.8835 183.307 51.7608 183.132C51.6504 182.972 51.5727 182.817 51.5196 182.69C51.4296 182.596 51.3356 182.486 51.2456 182.351L51.2047 182.302C51.1189 182.195 51.0371 182.089 50.9635 181.979C50.9062 181.893 50.8531 181.803 50.7958 181.717L50.7141 181.582C50.5587 181.345 50.4728 181.116 50.4238 180.932C50.2806 180.813 50.1253 180.654 49.9862 180.445C49.8554 180.286 49.7532 180.151 49.6714 180.012C49.606 179.906 49.5528 179.799 49.5119 179.705C49.3893 179.582 49.2584 179.427 49.1399 179.227L49.0663 179.108C49.009 179.014 48.9477 178.92 48.8945 178.822C48.8332 178.712 48.7759 178.597 48.7228 178.483L48.6819 178.397C48.5224 178.106 48.457 177.832 48.4243 177.661C48.4079 177.616 48.3916 177.571 48.3793 177.526C48.3343 177.473 48.2853 177.411 48.2403 177.35C48.1095 177.211 47.9255 177.007 47.7824 176.712C47.6556 176.455 47.5984 176.209 47.5738 176.001C47.5411 175.939 47.5043 175.874 47.4716 175.804C47.4103 175.674 47.3694 175.547 47.3408 175.432C47.2549 175.326 47.1731 175.203 47.0995 175.068C47.0096 174.938 46.891 174.758 46.7969 174.525C46.6825 174.255 46.6416 173.997 46.6334 173.789C46.6007 173.723 46.5721 173.658 46.5475 173.596C46.5189 173.515 46.4903 173.433 46.4698 173.359C46.3349 173.196 46.2041 172.987 46.1141 172.73C46.0446 172.541 46.0119 172.362 45.9996 172.198C45.9342 172.079 45.8729 171.949 45.8279 171.801C45.7829 171.658 45.7543 171.523 45.7379 171.409C45.6562 171.27 45.5703 171.09 45.513 170.873C45.4558 170.669 45.4354 170.481 45.4313 170.325C45.3822 170.215 45.3372 170.08 45.3004 169.929C45.2636 169.773 45.2432 169.614 45.2268 169.454C45.1696 169.201 45.1696 168.964 45.1941 168.763C45.0796 168.571 44.9733 168.33 44.9242 168.04C44.8997 167.905 44.8874 167.77 44.8752 167.631L44.867 167.553C44.8384 167.361 44.8384 167.181 44.8547 167.022C44.8138 166.899 44.7811 166.764 44.7607 166.617C44.7157 166.29 44.7566 165.999 44.822 165.77C44.8016 165.709 44.777 165.635 44.7566 165.554C44.6707 165.382 44.5685 165.128 44.5276 164.814C44.4908 164.662 44.4499 164.478 44.4295 164.257L44.4009 163.787C44.3886 163.644 44.3927 163.505 44.3968 163.362L44.4009 163.288C44.3845 163.051 44.4172 162.835 44.4704 162.646C44.3763 162.434 44.3068 162.184 44.2987 161.89C44.2905 161.604 44.3436 161.354 44.405 161.166C44.3395 160.974 44.2905 160.745 44.2905 160.475C44.2905 160.25 44.3232 160.058 44.3518 159.927C44.3355 159.788 44.3314 159.662 44.3314 159.535C44.3355 159.404 44.3477 159.269 44.3682 159.134C44.3436 158.991 44.3191 158.807 44.3273 158.598V158.492C44.3232 158.37 44.3232 158.247 44.3273 158.128C44.3314 157.993 44.3477 157.862 44.3641 157.728L44.3763 157.646C44.3886 157.384 44.454 157.151 44.5317 156.963C44.5276 156.889 44.5276 156.812 44.5358 156.726C44.544 156.603 44.5644 156.485 44.589 156.378C44.5644 156.26 44.5481 156.129 44.5481 155.986C44.5194 155.822 44.4908 155.589 44.5154 155.311L44.5603 154.849C44.5726 154.71 44.5971 154.575 44.6258 154.44L44.638 154.367C44.6666 154.097 44.7484 153.868 44.8425 153.676C44.8425 153.606 44.8506 153.536 44.8588 153.463C44.8793 153.303 44.912 153.16 44.957 153.034C44.9406 152.882 44.9406 152.715 44.9651 152.535C44.9938 152.326 45.051 152.142 45.1164 151.987C45.0551 151.75 45.0224 151.459 45.0755 151.132C45.1246 150.809 45.2391 150.556 45.3168 150.404C45.3331 150.355 45.3495 150.306 45.3699 150.257C45.3618 150.11 45.3699 149.942 45.4026 149.767C45.4435 149.542 45.513 149.354 45.5907 149.194C45.5458 148.961 45.5294 148.679 45.5948 148.368C45.6357 148.176 45.697 148.008 45.7747 147.861C45.7747 147.738 45.7911 147.604 45.8238 147.465C45.8442 147.362 45.8729 147.268 45.9015 147.186C45.8892 146.998 45.8974 146.778 45.9546 146.532C46.0241 146.254 46.1305 146.042 46.2041 145.903C46.2204 145.841 46.2409 145.784 46.2613 145.723L46.2899 145.641C46.3185 145.535 46.3513 145.424 46.3881 145.314C46.4003 145.277 46.4126 145.24 46.4208 145.203C46.4412 145.13 46.4657 145.06 46.4903 144.995C46.4739 144.778 46.4862 144.533 46.5598 144.267C46.6457 143.96 46.7929 143.719 46.9482 143.531C46.9482 143.372 46.9687 143.196 47.0218 143.012C47.0464 142.836 47.075 142.693 47.1159 142.554C47.1486 142.349 47.1854 142.182 47.2385 142.022C47.3244 141.752 47.4593 141.536 47.6024 141.364C47.6024 141.155 47.6352 140.931 47.721 140.693C47.8478 140.338 48.0481 140.084 48.1953 139.921C48.2076 139.9 48.2199 139.88 48.2321 139.863C48.2403 139.818 48.2526 139.769 48.2648 139.724C48.273 139.524 48.3057 139.25 48.4284 138.947C48.5347 138.69 48.6655 138.498 48.7432 138.387C48.7637 138.346 48.7841 138.31 48.8046 138.277C48.8209 138.081 48.87 137.86 48.9722 137.635C49.009 137.488 49.0622 137.336 49.1276 137.193C49.2053 137.026 49.2952 136.883 49.3893 136.76C49.422 136.625 49.467 136.482 49.5406 136.335C49.7286 135.938 50.0026 135.689 50.207 135.537C50.2234 135.513 50.2398 135.492 50.2561 135.472C50.3011 135.374 50.3461 135.272 50.3951 135.178C50.4524 135.067 50.5178 134.961 50.5832 134.855L50.6037 134.822C50.6118 134.797 50.62 134.777 50.6282 134.756C50.6486 134.511 50.71 134.176 50.9103 133.832C51.0207 133.636 51.1434 133.489 51.2129 133.399C51.2211 133.391 51.2129 133.403 51.2006 133.423C51.2824 133.288 51.3805 133.158 51.4828 133.035C51.4828 133.031 51.4828 133.031 51.4828 133.031L51.5073 132.986C51.5686 132.867 51.63 132.753 51.7036 132.638L51.7404 132.569C51.7935 132.467 51.8508 132.368 51.9121 132.27C52.0021 132.082 52.0797 131.931 52.1738 131.796C52.366 131.506 52.599 131.318 52.7626 131.199C52.8198 131.044 52.9016 130.876 53.0161 130.708C53.0938 130.569 53.1837 130.41 53.3146 130.238C53.4945 130.005 53.6826 129.85 53.8052 129.76C53.842 129.719 53.8788 129.682 53.9156 129.645C53.9892 129.482 54.0955 129.298 54.2509 129.114L54.2877 129.065C54.3736 128.95 54.4595 128.836 54.5535 128.733C54.7661 128.492 54.991 128.345 55.13 128.259C55.2609 128.149 55.3876 128.063 55.4817 128.006C55.5512 127.932 55.6207 127.858 55.6943 127.785L55.7434 127.728C55.8374 127.625 55.9314 127.523 56.0296 127.425L56.14 127.319C56.2218 127.241 56.3035 127.163 56.3853 127.086L56.4139 127.061C56.5202 126.82 56.7001 126.53 57.0027 126.276C57.2481 126.08 57.4975 125.961 57.7224 125.892C57.7714 125.851 57.8246 125.81 57.8777 125.769C58.0576 125.634 58.2294 125.548 58.3561 125.487C58.4543 125.401 58.5688 125.303 58.7119 125.209C58.8713 125.103 59.0267 125.029 59.1698 124.976C59.2802 124.874 59.4111 124.767 59.5664 124.677L59.6523 124.62C59.7668 124.547 59.8813 124.473 59.9999 124.407C60.1184 124.342 60.2329 124.293 60.331 124.256C60.4414 124.154 60.5805 124.048 60.7563 123.95C60.8871 123.851 61.0711 123.721 61.3165 123.614C62.2733 123.193 63.3936 123.631 63.8148 124.587C64.2114 125.487 63.8475 126.534 62.997 127C62.9479 127.041 62.8866 127.082 62.8212 127.127C62.6862 127.266 62.4859 127.446 62.2078 127.589C62.0361 127.674 61.8848 127.728 61.7744 127.764C61.6477 127.916 61.4678 128.1 61.2224 128.255C61.0221 128.382 60.8258 128.455 60.6582 128.505C60.605 128.545 60.5559 128.582 60.5069 128.619C60.4087 128.689 60.3147 128.746 60.2288 128.791C60.1389 128.897 60.0285 129.012 59.8854 129.126C59.7382 129.241 59.591 129.322 59.4479 129.388C59.3824 129.461 59.3129 129.535 59.2271 129.609C59.1943 129.637 59.1657 129.666 59.133 129.698C59.0676 129.764 59.0022 129.825 58.9327 129.891C58.8877 129.927 58.8427 129.972 58.7977 130.017L58.6015 130.218C58.5238 130.304 58.4461 130.394 58.3602 130.475C58.3152 130.52 58.2744 130.565 58.2294 130.614L58.0822 130.77C57.8818 130.974 57.6733 131.109 57.5425 131.187C57.4689 131.252 57.3953 131.305 57.3298 131.35C57.2562 131.534 57.1458 131.763 56.9618 131.988C56.7942 132.184 56.6265 132.324 56.5161 132.405C56.4507 132.475 56.3894 132.532 56.3322 132.585C56.279 132.802 56.1809 133.072 55.9846 133.342C55.8088 133.587 55.6125 133.755 55.4858 133.853C55.3999 133.947 55.314 134.024 55.2363 134.09C55.1995 134.159 55.1586 134.225 55.1178 134.286L55.085 134.352C55.0278 134.454 54.9746 134.556 54.9092 134.654L54.8765 134.724C54.8234 134.826 54.7661 134.928 54.7048 135.026C54.6271 135.161 54.5331 135.288 54.4308 135.407C54.4145 135.431 54.439 135.394 54.4513 135.374C54.4267 135.415 54.3981 135.46 54.3695 135.501C54.3368 135.676 54.2795 135.873 54.1773 136.081C54.1119 136.269 54.0506 136.421 53.9729 136.564C53.9197 136.662 53.8625 136.756 53.8052 136.85L53.7398 136.973C53.6907 137.091 53.6417 137.21 53.5804 137.324C53.4495 137.59 53.2819 137.778 53.1796 137.893C53.1388 137.95 53.102 138.003 53.0611 138.052C53.0324 138.175 52.9875 138.301 52.9261 138.436C52.8362 138.624 52.7299 138.784 52.6195 138.911C52.6072 139.127 52.5663 139.377 52.4518 139.638C52.3251 139.941 52.1533 140.154 52.0266 140.293C52.0061 140.419 51.9775 140.558 51.9285 140.71C51.8957 140.857 51.8589 141.029 51.7813 141.229C51.6954 141.458 51.5932 141.63 51.5277 141.736C51.5196 141.752 51.5114 141.769 51.5032 141.781C51.5073 141.994 51.4746 142.223 51.3887 142.472C51.3519 142.574 51.311 142.681 51.2661 142.783L51.2293 142.877C51.1229 143.188 50.9594 143.429 50.7877 143.613C50.8245 143.862 50.8326 144.181 50.7263 144.537L50.5996 144.954C50.5382 145.163 50.4524 145.338 50.3542 145.49C50.342 145.584 50.3215 145.678 50.297 145.772C50.2234 146.05 50.1048 146.262 50.019 146.406C50.0108 146.43 50.0026 146.455 49.9944 146.479C49.9822 146.516 49.9699 146.553 49.9576 146.59C49.929 146.708 49.8922 146.823 49.8513 146.941L49.8268 147.023C49.8022 147.121 49.7695 147.215 49.7368 147.301C49.7409 147.469 49.7327 147.661 49.6837 147.873C49.6673 147.939 49.651 148.004 49.6305 148.066C49.651 148.262 49.651 148.495 49.5978 148.753C49.5651 148.9 49.5201 149.035 49.4629 149.157C49.467 149.296 49.4588 149.452 49.4261 149.611L49.4179 149.689C49.4015 149.807 49.3852 149.926 49.3647 150.045C49.3361 150.192 49.2952 150.327 49.2462 150.449C49.2503 150.588 49.2421 150.744 49.2135 150.907C49.1644 151.185 49.0663 151.414 48.9722 151.59C48.9967 151.77 49.0049 151.975 48.9681 152.199C48.9681 152.355 48.9599 152.498 48.9395 152.637C48.915 152.813 48.8659 152.968 48.8127 153.107C48.8209 153.226 48.8168 153.361 48.8005 153.5C48.7759 153.68 48.7351 153.839 48.686 153.978C48.6901 154.097 48.6901 154.228 48.6737 154.371C48.6287 154.771 48.4734 155.086 48.3221 155.311L48.3057 155.495C48.3098 155.511 48.3139 155.532 48.3139 155.556C48.412 155.794 48.5102 156.133 48.4815 156.55C48.4652 156.754 48.4243 156.934 48.3711 157.086C48.3793 157.188 48.3834 157.302 48.3752 157.425C48.3548 157.801 48.2321 158.108 48.1136 158.325L48.1176 158.394C48.1176 158.451 48.1176 158.513 48.1176 158.57C48.1463 158.721 48.179 158.926 48.1749 159.167C48.1708 159.322 48.1504 159.478 48.1258 159.633C48.1422 159.776 48.1504 159.911 48.1504 160.042C48.1504 160.124 48.1463 160.205 48.1381 160.279C48.1953 160.455 48.2403 160.672 48.2403 160.917C48.2403 161.04 48.2362 161.166 48.224 161.289L48.2199 161.371C48.2199 161.403 48.2199 161.436 48.2199 161.469C48.3139 161.677 48.3834 161.927 48.3957 162.217L48.4079 162.655C48.4243 163.072 48.3139 163.415 48.1912 163.669L48.2076 163.894C48.2199 163.943 48.228 163.988 48.2403 164.033C48.3139 164.192 48.3998 164.401 48.4447 164.662C48.4897 164.797 48.5429 164.973 48.5715 165.19C48.6165 165.378 48.6492 165.521 48.6655 165.668C48.686 165.84 48.6819 165.999 48.6655 166.147C48.7064 166.257 48.7351 166.38 48.7555 166.51C48.7923 166.78 48.7759 167.026 48.7351 167.23C48.8005 167.369 48.8618 167.524 48.9027 167.704C48.9681 167.892 49.009 168.036 49.0417 168.183C49.1112 168.53 49.0826 168.841 49.0295 169.078C49.0744 169.185 49.1194 169.307 49.1562 169.45C49.193 169.589 49.2094 169.724 49.2175 169.843C49.2789 169.957 49.3361 170.092 49.3852 170.248C49.3893 170.268 49.3934 170.284 49.3975 170.305C49.5447 170.477 49.6878 170.697 49.7818 170.971C49.8472 171.168 49.8799 171.352 49.8881 171.523C49.9331 171.605 49.9781 171.699 50.0149 171.797C50.0885 171.998 50.1253 172.182 50.1457 172.325C50.1989 172.427 50.2398 172.521 50.2806 172.611C50.3502 172.787 50.391 172.954 50.4115 173.106C50.575 173.265 50.7468 173.482 50.8694 173.76C50.9717 173.985 51.0207 174.202 51.0453 174.386C51.078 174.443 51.1148 174.508 51.1475 174.578C51.2293 174.749 51.2824 174.913 51.311 175.064C51.4746 175.212 51.6627 175.412 51.8099 175.694C51.9775 176.021 52.0348 176.328 52.0552 176.536C52.0879 176.639 52.1084 176.733 52.1247 176.81C52.137 176.835 52.1452 176.859 52.1574 176.88L52.1983 176.97C52.2188 177.007 52.2474 177.043 52.2719 177.084C52.415 177.211 52.5949 177.395 52.7503 177.653C52.8403 177.812 52.9057 177.955 52.9466 178.074C53.1306 178.205 53.3596 178.401 53.5436 178.695C53.609 178.802 53.6703 178.908 53.7235 179.014L53.7643 179.088C53.9279 179.341 54.0097 179.591 54.0547 179.779L54.161 179.934C54.2059 179.987 54.2468 180.04 54.2877 180.098C54.4063 180.204 54.5576 180.355 54.7007 180.564C54.8152 180.731 54.8929 180.899 54.9501 181.03C54.9787 181.067 55.0114 181.104 55.0482 181.144C55.1709 181.251 55.3345 181.406 55.4898 181.619C55.6248 181.811 55.7106 181.999 55.772 182.167C55.9355 182.281 56.1318 182.445 56.2994 182.674C56.4507 182.882 56.5489 183.095 56.6061 183.295C56.6184 183.307 56.6265 183.316 56.6388 183.328C56.7574 183.43 56.9128 183.573 57.0641 183.774C57.2072 183.962 57.2971 184.15 57.3625 184.305C57.5506 184.42 57.7469 184.583 57.9186 184.808C58.1312 185.086 58.2376 185.364 58.2948 185.556C58.3193 185.601 58.3439 185.642 58.3684 185.687C58.3643 185.687 58.3439 185.659 58.3234 185.63C58.4134 185.748 58.4911 185.871 58.5647 185.994C58.5728 186.006 58.581 186.014 58.5851 186.022C58.81 186.141 59.0676 186.321 59.2843 186.603C59.4233 186.787 59.5133 186.955 59.5705 187.057C59.5705 187.057 59.5705 187.061 59.5583 187.045C59.6196 187.126 59.6727 187.208 59.73 187.294L59.7831 187.372C59.9303 187.564 60.0285 187.756 60.0898 187.916C60.1593 187.989 60.2207 188.059 60.2779 188.136L60.3678 188.259C60.5396 188.369 60.7522 188.537 60.9362 188.782C61.0998 188.999 61.202 189.22 61.2633 189.424C61.431 189.539 61.5986 189.69 61.7499 189.89C61.8889 190.083 61.9748 190.254 62.0279 190.357C62.0279 190.357 62.0157 190.336 61.9993 190.312C62.1629 190.545 62.261 190.778 62.3182 190.986C62.4573 191.097 62.6167 191.248 62.7557 191.444C62.9193 191.669 63.0092 191.89 63.0665 192.041L63.2505 192.299C63.3364 192.401 63.4222 192.507 63.4999 192.618L63.5122 192.634C63.7207 192.765 63.9783 192.965 64.1868 193.276C64.2727 193.407 64.3504 193.546 64.4199 193.685C64.5589 193.902 64.6448 194.118 64.6939 194.306C64.8533 194.433 65.0332 194.613 65.1886 194.858C65.3235 195.071 65.4012 195.288 65.4503 195.484C65.4544 195.492 65.4626 195.5 65.4707 195.513C65.5975 195.631 65.7692 195.811 65.9205 196.065C66.0922 196.355 66.1658 196.641 66.1986 196.887C66.2926 197.005 66.4112 197.152 66.5175 197.344C66.6442 197.569 66.7097 197.774 66.7506 197.925C66.8896 198.048 67.0449 198.211 67.1758 198.432C67.278 198.555 67.4129 198.727 67.5274 198.955C67.6624 199.217 67.7196 199.475 67.7401 199.7C67.7687 199.749 67.7973 199.802 67.8259 199.859C67.969 200.158 68.0181 200.44 68.0345 200.64C68.0426 200.652 68.0467 200.669 68.0549 200.685L68.0713 200.73C68.1776 200.898 68.2593 201.037 68.3248 201.184L68.3656 201.266C68.4229 201.38 68.4801 201.495 68.5333 201.613C68.566 201.687 68.5946 201.765 68.6192 201.842C68.7418 201.989 68.8808 202.186 68.9872 202.447L69.0158 202.505C69.0403 202.554 69.0648 202.607 69.0853 202.656C69.1998 202.799 69.3429 203.008 69.4451 203.286L69.6127 203.731C69.6659 203.866 69.7027 204.005 69.7395 204.148L69.9031 204.635C70.0216 204.978 70.0298 205.289 70.0135 205.518C70.0993 205.661 70.1852 205.829 70.2465 206.029C70.316 206.27 70.3406 206.483 70.3487 206.622L70.361 206.663C70.3896 206.761 70.4223 206.855 70.4469 206.957C70.4837 207.08 70.5082 207.207 70.5327 207.334L70.5532 207.424C70.5777 207.518 70.6023 207.62 70.6227 207.718L70.6309 207.738C70.7004 207.873 70.7822 208.053 70.8394 208.274C70.913 208.466 70.9662 208.622 71.003 208.777C71.0316 208.9 71.052 209.022 71.0684 209.149L71.0847 209.247C71.1338 209.468 71.142 209.672 71.1379 209.836C71.2606 210.028 71.3955 210.294 71.4609 210.633C71.5018 210.854 71.5018 211.058 71.4854 211.234C71.5182 211.332 71.5509 211.443 71.5713 211.561C71.604 211.741 71.6081 211.913 71.5999 212.064C71.649 212.187 71.6899 212.326 71.7144 212.477L71.7635 212.776C71.8289 212.927 71.9066 213.132 71.9475 213.381L71.9802 213.549C71.9965 213.647 72.017 213.745 72.0333 213.839C72.0661 214.06 72.062 214.264 72.0374 214.444C72.0701 214.546 72.0988 214.653 72.1151 214.771C72.1315 214.869 72.1397 214.963 72.1519 215.061L72.156 215.074C72.2173 215.229 72.2869 215.429 72.3237 215.679C72.34 215.781 72.3482 215.879 72.3605 215.973L72.3809 216.145C72.4013 216.288 72.4095 216.431 72.4136 216.578V216.644C72.4463 216.881 72.43 217.106 72.4177 217.241C72.4218 217.319 72.4259 217.392 72.4259 217.458C72.479 217.605 72.5322 217.789 72.5567 218.001C72.5772 218.161 72.5813 218.32 72.5772 218.48L72.5731 218.472C72.5935 218.664 72.5894 218.835 72.5731 218.983C72.6099 219.101 72.6385 219.244 72.6549 219.4C72.6753 219.563 72.6712 219.706 72.6671 219.817C72.7121 219.956 72.753 220.128 72.7734 220.328C72.7898 220.512 72.7816 220.68 72.7612 220.827C72.798 220.954 72.8266 221.101 72.8429 221.26C72.847 221.338 72.8511 221.411 72.8511 221.477C72.9329 221.669 73.0065 221.906 73.0229 222.184C73.0351 222.352 73.031 222.52 73.0188 222.687C73.0188 222.691 73.0188 222.691 73.0188 222.691L73.0229 222.736C73.0433 222.863 73.0597 222.99 73.0678 223.117C73.076 223.276 73.0719 223.431 73.0597 223.587C73.0719 223.869 73.0269 224.114 72.9615 224.323C73.0269 224.503 73.0842 224.732 73.0924 224.993C73.1005 225.157 73.0842 225.304 73.0637 225.439C73.1005 225.586 73.1251 225.75 73.1292 225.93C73.1333 226.04 73.1292 226.15 73.1292 226.261L73.1251 226.396C73.1292 226.559 73.1128 226.723 73.0924 226.886C73.0883 226.911 73.0883 226.895 73.0883 226.87C73.0924 227.009 73.0801 227.136 73.0597 227.25C73.1005 227.41 73.1333 227.598 73.1292 227.806C73.1292 227.888 73.1251 227.97 73.1169 228.044C73.1864 228.244 73.2314 228.477 73.2273 228.743C73.2191 228.964 73.1864 229.152 73.1537 229.287C73.1701 229.434 73.1741 229.556 73.1701 229.683C73.1619 229.965 73.0965 230.203 73.0351 230.378C73.0351 230.46 73.0351 230.538 73.031 230.62C73.0269 230.714 73.0147 230.799 73.0024 230.881C73.0556 231.082 73.0883 231.311 73.0719 231.564C73.0515 231.846 72.9861 232.075 72.9411 232.214C72.937 232.243 72.9329 232.271 72.9288 232.3C72.9738 232.488 72.9983 232.717 72.9738 232.975C72.9615 233.134 72.9329 233.269 72.9043 233.384C72.9247 233.531 72.9329 233.711 72.9084 233.915C72.8757 234.238 72.7775 234.492 72.7121 234.643C72.6508 234.88 72.5649 235.072 72.4872 235.207C72.4831 235.236 72.4749 235.26 72.4668 235.281C72.5526 235.538 72.6099 235.87 72.5526 236.254C72.5322 236.389 72.4995 236.512 72.4627 236.622C72.479 236.798 72.479 236.99 72.4422 237.194C72.385 237.53 72.2623 237.787 72.1683 237.955C72.1315 238.065 72.0947 238.155 72.0701 238.221C72.0701 238.225 72.0661 238.229 72.0661 238.233C72.1069 238.45 72.1233 238.711 72.0661 239.002C72.0497 239.21 72.0293 239.366 71.9965 239.521C71.9516 239.717 71.8862 239.885 71.8085 240.032C71.8003 240.159 71.7839 240.298 71.7471 240.437C71.6613 240.797 71.4977 241.067 71.3587 241.251L71.3055 241.451C71.281 241.557 71.2565 241.664 71.2278 241.77C71.2197 241.79 71.2156 241.811 71.2074 241.831C71.2483 242.089 71.2483 242.4 71.1461 242.735C71.1134 242.845 71.0725 242.964 71.0316 243.078L70.9457 243.34C70.9171 243.438 70.8844 243.54 70.8558 243.638C70.8067 243.786 70.7454 243.933 70.6759 244.076C70.6104 244.276 70.5164 244.448 70.4183 244.595C70.406 244.665 70.3896 244.738 70.3692 244.816C70.3487 244.976 70.3119 245.188 70.2261 245.429C70.1279 245.695 70.0012 245.891 69.9194 246.01C69.899 246.063 69.8744 246.112 69.8499 246.153C69.8295 246.333 69.7886 246.537 69.7027 246.754C69.6087 246.983 69.4901 247.167 69.3674 247.314C69.3592 247.535 69.3143 247.801 69.1916 248.083L69.0035 248.516C68.8522 248.852 68.6437 249.085 68.4924 249.228C68.4679 249.265 68.4474 249.293 68.427 249.326C68.3902 249.449 68.3411 249.588 68.2634 249.739L68.243 249.8C68.1939 249.927 68.1408 250.054 68.0794 250.177C67.9568 250.422 67.8137 250.598 67.7196 250.708C67.6787 250.778 67.6378 250.847 67.5969 250.917L67.4906 251.109C67.4538 251.182 67.417 251.256 67.3761 251.33C67.3598 251.383 67.3393 251.432 67.323 251.477C67.2944 251.694 67.2289 251.992 67.0531 252.303C66.9591 252.475 66.8487 252.614 66.7383 252.732C66.6974 252.851 66.6402 252.977 66.5625 253.104C66.4316 253.333 66.2803 253.501 66.1699 253.611C66.129 253.824 66.0473 254.081 65.8837 254.343C65.7324 254.588 65.5648 254.756 65.4544 254.862C65.3685 254.977 65.2908 255.063 65.2377 255.124C65.2377 255.124 65.254 255.095 65.2745 255.071C65.1518 255.259 65.0128 255.406 64.8983 255.513C64.8533 255.758 64.7634 256.032 64.5794 256.298L64.3177 256.682C64.1623 256.907 63.9988 257.062 63.9006 257.148C63.8679 257.193 63.8311 257.234 63.7943 257.275C63.733 257.455 63.643 257.643 63.5081 257.831C63.3691 258.019 63.2219 258.162 63.1033 258.264C63.0379 258.371 62.9806 258.465 62.9152 258.551C62.7966 258.71 62.674 258.833 62.5595 258.927C62.5022 259.037 62.4286 259.16 62.3346 259.282C62.2119 259.446 62.0729 259.577 61.938 259.679C61.8725 259.904 61.7621 260.174 61.5536 260.44C61.3696 260.669 61.1815 260.816 61.067 260.906C60.928 261.045 60.789 261.151 60.6663 261.229C60.6214 261.29 60.5805 261.347 60.5355 261.405L60.4782 261.482C60.4087 261.58 60.3351 261.679 60.2575 261.773L60.2166 261.83C60.192 261.863 60.1675 261.899 60.143 261.932C60.0694 262.104 59.9549 262.333 59.7586 262.566L59.7095 262.631C59.6359 262.733 59.5583 262.836 59.4765 262.93C59.2966 263.138 59.1044 263.281 58.9449 263.379C58.8959 263.441 58.8468 263.502 58.7977 263.563C58.6096 263.776 58.4093 263.919 58.2703 264.009C58.2498 264.03 58.2335 264.05 58.213 264.066L58.1067 264.181C58.0781 264.214 58.0495 264.242 58.0249 264.271C57.9432 264.492 57.8164 264.737 57.6079 264.97C57.428 265.166 57.2399 265.301 57.0927 265.391C57.0354 265.461 56.9823 265.526 56.9209 265.587C56.7451 265.78 56.5611 265.91 56.4139 266C56.3281 266.193 56.2013 266.409 56.005 266.622C55.9314 266.7 55.8538 266.769 55.7802 266.826C55.6943 266.998 55.5798 267.17 55.4203 267.337C55.2609 267.509 55.085 267.632 54.9133 267.726C54.9051 267.738 54.897 267.75 54.8847 267.763C54.8029 267.918 54.6762 268.123 54.4758 268.331C54.2959 268.515 54.1037 268.646 53.9156 268.74C53.8298 268.928 53.6989 269.128 53.5149 269.316C53.4045 269.431 53.286 269.521 53.1715 269.599C53.0938 269.725 52.9956 269.852 52.873 269.975C52.7094 270.142 52.5336 270.261 52.37 270.347C52.3169 270.42 52.2515 270.494 52.1779 270.564C52.0675 270.674 51.9489 270.772 51.8262 270.87C51.6341 271.054 51.4378 271.177 51.311 271.255C51.2293 271.324 51.1475 271.39 51.0575 271.451C51.0453 271.463 51.0739 271.435 51.0943 271.414C51.0412 271.467 50.9839 271.516 50.9308 271.565C50.8735 271.676 50.7958 271.798 50.6977 271.921C50.6078 272.081 50.4728 272.301 50.2561 272.514C50.1662 272.633 50.0639 272.747 49.9535 272.853C49.8309 272.976 49.7082 273.066 49.606 273.135C49.5283 273.246 49.4302 273.369 49.3034 273.495C49.0867 273.704 48.8536 273.839 48.641 273.925C48.6083 273.957 48.5756 273.99 48.5429 274.023C48.4407 274.121 48.3303 274.211 48.2158 274.301L48.2076 274.305C48.0931 274.452 47.995 274.562 47.8887 274.661C47.766 274.779 47.627 274.886 47.4839 274.984C47.4798 274.988 47.5043 274.967 47.5288 274.939C47.3571 275.106 47.1854 275.217 47.0545 275.294C46.9973 275.409 46.9278 275.532 46.8337 275.658C46.7438 275.842 46.5966 276.096 46.3431 276.337C46.1673 276.505 45.9792 276.623 45.8156 276.705C45.7625 276.77 45.7011 276.84 45.6275 276.905C45.4272 277.098 45.2227 277.22 45.1001 277.29C45.0592 277.322 45.0142 277.355 44.9733 277.38C44.8874 277.527 44.7689 277.682 44.6135 277.829C44.4786 277.956 44.3395 278.054 44.2087 278.128C44.1351 278.23 44.0451 278.336 43.9388 278.439C43.8693 278.504 43.7957 278.561 43.7303 278.615C43.6363 278.778 43.5095 278.958 43.3296 279.126C43.211 279.24 43.0843 279.33 42.9616 279.404C42.8798 279.522 42.7817 279.641 42.6631 279.755C42.4832 279.923 42.2951 280.042 42.1193 280.123C42.0212 280.316 41.8821 280.528 41.6736 280.724C41.3097 281.068 40.8395 281.24 40.3734 281.24ZM47.1404 275.192L47.12 275.213C47.1281 275.204 47.1322 275.2 47.1404 275.192ZM63.9947 257.025C63.9824 257.046 63.9701 257.062 63.9538 257.083C63.9701 257.066 63.9824 257.046 63.9947 257.025ZM65.7202 246.562C65.7161 246.57 65.712 246.574 65.712 246.582L65.7202 246.562ZM65.7324 246.1C65.7283 246.104 65.7242 246.112 65.7242 246.116L65.7324 246.1ZM65.9001 204.623C65.9001 204.627 65.9042 204.631 65.9042 204.635L65.9001 204.623ZM66.8732 198.175L66.8814 198.187C66.8773 198.183 66.8732 198.179 66.8732 198.175ZM66.6729 197.802L66.681 197.815C66.677 197.811 66.6729 197.807 66.6729 197.802ZM61.6231 196.572C61.6231 196.576 61.6272 196.584 61.6313 196.588C61.6272 196.584 61.6231 196.58 61.6231 196.572ZM46.9646 143.879C46.9646 143.883 46.9605 143.891 46.9605 143.895L46.9646 143.879Z" fill="#ADADAD"/>
<mask id="mask0_1_71" style="mask-type:luminance" maskUnits="userSpaceOnUse" x="0" y="0" width="122" height="140">
<path d="M0 0H121.566V139.082H0V0Z" fill="white"/>
</mask>
<g mask="url(#mask0_1_71)">
<path d="M56.8351 130.042C56.6838 130.021 56.557 129.948 56.4058 129.923C56.2586 129.899 56.0827 130.03 55.9315 130.005C55.7843 129.981 55.6616 129.793 55.5103 129.764C55.359 129.739 55.2241 129.649 55.0728 129.621C54.9256 129.596 54.7661 129.617 54.6189 129.588C54.4676 129.564 54.3041 129.613 54.1569 129.584C54.0056 129.555 53.842 129.596 53.6948 129.564C53.5436 129.535 53.4086 129.449 53.2573 129.42C53.1101 129.388 52.967 129.326 52.8198 129.294C52.6726 129.261 52.4927 129.363 52.3455 129.33C52.1983 129.298 52.0552 129.236 51.9039 129.204C51.7567 129.171 51.6382 129.003 51.491 128.971C51.3438 128.934 51.1557 129.061 51.0085 129.028C50.8613 128.991 50.7427 128.848 50.5955 128.811C50.4483 128.774 50.2684 128.852 50.1212 128.815C49.974 128.774 49.835 128.717 49.6878 128.676C49.5406 128.639 49.422 128.496 49.2748 128.46C49.1276 128.419 48.9804 128.378 48.8332 128.337C48.6901 128.296 48.5102 128.361 48.3671 128.321C48.2199 128.276 48.0768 128.231 47.9296 128.186C47.7824 128.145 47.672 127.989 47.5248 127.944C47.3817 127.899 47.259 127.777 47.1159 127.732C46.9728 127.687 46.8337 127.613 46.6906 127.568C46.5475 127.523 46.3758 127.556 46.2327 127.507C46.0896 127.458 45.9506 127.392 45.8074 127.343C45.6643 127.294 45.4885 127.335 45.3454 127.286C45.2023 127.237 45.0796 127.135 44.9365 127.082C44.7934 127.033 44.638 127.012 44.4949 126.959C44.3518 126.91 44.2455 126.767 44.1024 126.714C43.9593 126.66 43.8244 126.591 43.6812 126.538C43.5381 126.485 43.3419 126.579 43.1988 126.526C43.0597 126.468 42.9412 126.35 42.8021 126.297C42.659 126.239 42.5323 126.153 42.3892 126.096C42.2501 126.039 42.1234 125.949 41.9844 125.892C41.8413 125.834 41.6859 125.818 41.5469 125.761C41.4038 125.704 41.2157 125.761 41.0766 125.704C40.9376 125.642 40.8109 125.548 40.6718 125.487C40.5328 125.426 40.4306 125.278 40.2957 125.217C40.1566 125.156 39.9849 125.164 39.8459 125.103C39.711 125.041 39.5965 124.923 39.4575 124.857C39.3225 124.796 39.2121 124.669 39.0772 124.604C38.9382 124.542 38.7378 124.608 38.6029 124.542C38.4639 124.477 38.333 124.399 38.1981 124.334C38.0591 124.268 37.9078 124.232 37.7728 124.166C37.6379 124.097 37.552 123.929 37.4171 123.86C37.2822 123.79 37.1718 123.671 37.0369 123.602C36.9019 123.532 36.6811 123.631 36.5462 123.561C36.4113 123.492 36.3458 123.291 36.2109 123.222C36.0801 123.152 35.9738 123.025 35.8388 122.952C35.708 122.882 35.5158 122.919 35.3809 122.846C35.25 122.772 35.1069 122.715 34.9761 122.641C34.8411 122.568 34.6653 122.572 34.5304 122.498C34.3995 122.42 34.2973 122.294 34.1665 122.216C34.0356 122.142 33.8925 122.085 33.7617 122.007C33.6308 121.934 33.5327 121.803 33.4019 121.725C33.271 121.648 33.1688 121.525 33.042 121.443C32.9112 121.365 32.764 121.312 32.6372 121.235C32.5064 121.153 32.4001 121.038 32.2733 120.961C32.1425 120.879 31.9912 120.838 31.8604 120.756C31.7336 120.674 31.6314 120.552 31.5046 120.47C31.3779 120.388 31.198 120.388 31.0712 120.302C30.9445 120.221 30.9199 119.987 30.7932 119.902C30.6664 119.816 30.4661 119.844 30.3393 119.758C30.2126 119.677 30.1717 119.472 30.0449 119.386C29.9222 119.301 29.7464 119.288 29.6197 119.202C29.497 119.112 29.3539 119.055 29.2312 118.969C29.1045 118.879 29.0023 118.765 28.8796 118.679C28.7569 118.589 28.7038 118.405 28.5811 118.315C28.4584 118.225 28.2703 118.225 28.1477 118.135C28.0291 118.045 27.9024 117.959 27.7797 117.869C27.6611 117.779 27.5057 117.73 27.3872 117.636C27.2645 117.546 27.0928 117.518 26.9742 117.424C26.8556 117.334 26.737 117.236 26.6185 117.142C26.4999 117.048 26.4058 116.921 26.2873 116.827C26.1687 116.729 26.0665 116.618 25.9479 116.524C25.8293 116.426 25.7884 116.238 25.6739 116.14C25.5554 116.046 25.3223 116.091 25.2037 115.993C25.0892 115.894 24.9952 115.768 24.8807 115.67C24.7662 115.571 24.758 115.351 24.6435 115.253C24.529 115.154 24.3859 115.085 24.2715 114.983C24.1611 114.885 24.0834 114.741 23.9689 114.643C23.8585 114.541 23.7154 114.472 23.605 114.369C23.4905 114.271 23.2779 114.279 23.1675 114.177C23.053 114.075 22.9998 113.911 22.8894 113.809C22.7749 113.707 22.7668 113.494 22.6564 113.392C22.5419 113.29 22.4396 113.184 22.3292 113.077C22.2188 112.975 21.9858 112.995 21.8795 112.893C21.7691 112.787 21.6832 112.656 21.5769 112.55C21.4665 112.443 21.3888 112.309 21.2825 112.202C21.1721 112.096 21.0944 111.961 20.9881 111.855C20.8818 111.748 20.6937 111.72 20.5874 111.613C20.4811 111.503 20.4729 111.303 20.3666 111.192C20.2603 111.082 20.0313 111.094 19.9291 110.984C19.8228 110.873 19.7942 110.693 19.6878 110.583C19.5856 110.477 19.3975 110.44 19.2953 110.33C19.1931 110.219 19.0663 110.129 18.9641 110.019C18.8578 109.908 18.7883 109.769 18.6861 109.655C18.5839 109.545 18.453 109.459 18.3508 109.344C18.2486 109.234 18.1872 109.087 18.0891 108.972C17.9869 108.858 17.9664 108.674 17.8683 108.559C17.7702 108.445 17.5535 108.432 17.4512 108.318C17.3531 108.203 17.2386 108.101 17.1405 107.987C17.0424 107.872 17.0873 107.635 16.9892 107.521C16.8911 107.406 16.8052 107.279 16.7112 107.165C16.613 107.046 16.3881 107.038 16.29 106.919C16.196 106.801 16.2328 106.576 16.1387 106.462C16.0406 106.343 15.783 106.355 15.6889 106.237C15.5949 106.118 15.5131 105.991 15.4191 105.869C15.325 105.75 15.2923 105.586 15.1983 105.464C15.1083 105.345 15.0634 105.186 14.9734 105.067C14.8794 104.945 14.6954 104.895 14.6054 104.777C14.5154 104.654 14.5318 104.45 14.4418 104.331C14.3519 104.209 14.1965 104.135 14.1066 104.012C14.0166 103.894 14.0698 103.665 13.9839 103.542C13.8939 103.419 13.7304 103.35 13.6445 103.227C13.5546 103.105 13.4932 102.966 13.4033 102.843C13.3174 102.716 13.2111 102.606 13.1252 102.483C13.0394 102.36 12.8308 102.319 12.745 102.193C12.6591 102.07 12.561 101.951 12.4792 101.825C12.3933 101.698 12.422 101.498 12.3402 101.371C12.2543 101.244 12.1357 101.142 12.054 101.015C11.9722 100.888 11.9436 100.725 11.8618 100.598C11.78 100.471 11.7228 100.328 11.641 100.201C11.5592 100.075 11.457 99.9602 11.3752 99.8335C11.2934 99.7067 11.2321 99.5677 11.1503 99.4409C11.0685 99.3101 10.9663 99.1997 10.8886 99.0689C10.8069 98.938 10.6392 98.8644 10.5615 98.7377C10.4838 98.6068 10.3448 98.5128 10.2671 98.3819C10.1894 98.2511 10.3203 97.9976 10.2467 97.8667C10.169 97.7359 10.0913 97.605 10.0177 97.4742C9.94002 97.3434 9.81735 97.2411 9.74375 97.1103C9.66606 96.9795 9.65788 96.8118 9.58429 96.681C9.51069 96.546 9.26535 96.5092 9.19176 96.3784C9.11816 96.2475 9.20402 96.0267 9.13451 95.8918C9.06091 95.761 8.91371 95.671 8.84011 95.5361C8.7706 95.4012 8.57843 95.3316 8.50892 95.2008C8.43532 95.0659 8.49256 94.8655 8.41896 94.7306C8.34945 94.5957 8.15728 94.5261 8.08777 94.3912C8.01825 94.2604 8.12865 94.0314 8.05914 93.8965C7.99372 93.7615 7.91194 93.6348 7.84243 93.4998C7.77701 93.3649 7.54395 93.3077 7.47444 93.1727C7.40902 93.0378 7.34359 92.9029 7.27817 92.7638C7.21275 92.6289 7.19231 92.4694 7.12688 92.3345C7.06146 92.1955 7.00831 92.0565 6.94289 91.9175C6.88155 91.7825 6.88155 91.6149 6.81613 91.4759C6.7548 91.3368 6.57489 91.2551 6.51356 91.116C6.45222 90.977 6.39089 90.838 6.32956 90.699C6.26822 90.564 6.2028 90.425 6.14147 90.286C6.08014 90.147 6.04334 89.9998 5.98609 89.8608C5.92476 89.7217 5.97383 89.5336 5.91658 89.3946C5.85934 89.2556 5.76121 89.1329 5.70396 88.9939C5.64672 88.8508 5.57721 88.7159 5.51996 88.5769C5.46272 88.4378 5.38503 88.3029 5.32779 88.1639C5.27463 88.0249 5.15197 87.9104 5.09472 87.7673C5.04157 87.6282 5.17241 87.4156 5.11517 87.2725C5.06201 87.1335 4.88619 87.0394 4.83304 86.8963C4.77988 86.7532 4.78806 86.5897 4.7349 86.4466C4.68175 86.3075 4.64904 86.1563 4.59997 86.0172C4.54682 85.8741 4.48957 85.7351 4.43642 85.592C4.38735 85.4489 4.3342 85.3058 4.28513 85.1668C4.23198 85.0236 4.24833 84.856 4.19926 84.717C4.1502 84.5739 3.98664 84.4676 3.93758 84.3244C3.88851 84.1813 3.88033 84.026 3.83127 83.8829C3.78629 83.7397 3.75767 83.5885 3.71269 83.4453C3.66771 83.2981 3.41829 83.2205 3.37332 83.0773C3.32834 82.9301 3.39785 82.7502 3.35287 82.6071C3.30789 82.4599 3.32425 82.3005 3.27927 82.1533C3.2343 82.0102 3.06256 81.9038 3.02167 81.7566C2.9767 81.6135 2.93172 81.4663 2.89083 81.3232C2.84585 81.176 2.97261 80.9839 2.93172 80.8367C2.89083 80.6935 2.7559 80.575 2.71501 80.4278C2.67412 80.2806 2.52283 80.1661 2.48603 80.0189C2.44515 79.8758 2.4247 79.7204 2.3879 79.5773C2.34701 79.4301 2.41244 79.2543 2.37564 79.1112C2.33475 78.964 2.29386 78.8168 2.25706 78.6737C2.22026 78.5265 2.14666 78.3874 2.10986 78.2402C2.07715 78.093 1.97493 77.9622 1.93813 77.815C1.90542 77.6678 1.91359 77.5083 1.8768 77.3611C1.84408 77.2139 1.88497 77.0504 1.85226 76.9032C1.81955 76.756 1.86862 76.5883 1.83591 76.4411C1.8032 76.2939 1.79911 76.1386 1.7664 75.9914C1.73777 75.8442 1.62329 75.7133 1.59466 75.5661C1.56195 75.4189 1.55378 75.2635 1.52515 75.1163C1.49653 74.9691 1.39022 74.8342 1.3616 74.687C1.33298 74.5398 1.30844 74.3885 1.27982 74.2413C1.2512 74.09 1.18987 73.9469 1.16125 73.7997C1.13671 73.6525 1.26347 73.4767 1.23893 73.3254C1.2144 73.1782 1.03449 73.0556 1.00996 72.9043C0.985425 72.7571 0.948625 72.6058 0.928181 72.4586C0.903647 72.3073 0.989513 72.1438 0.964981 71.9925C0.944537 71.8412 0.801426 71.7103 0.780982 71.5631C0.756449 71.4118 0.891381 71.2401 0.870937 71.0888C0.850493 70.9416 0.866848 70.7863 0.846404 70.635C0.825959 70.4878 0.805515 70.3365 0.78916 70.1852C0.768716 70.038 0.53974 69.9112 0.523384 69.764C0.50294 69.6127 0.523384 69.4574 0.507029 69.3061C0.490674 69.1548 0.417075 69.0117 0.400719 68.8604C0.384364 68.7132 0.392541 68.5578 0.380275 68.4065C0.363919 68.2553 0.457963 68.0958 0.445696 67.9445C0.429341 67.7932 0.482496 67.6378 0.470229 67.4865C0.457963 67.3353 0.298497 67.1962 0.286231 67.049C0.273964 66.8977 0.273965 66.7465 0.265787 66.5952C0.253521 66.4439 0.204453 66.2926 0.196276 66.1413C0.184009 65.9941 0.29032 65.8346 0.278053 65.6834C0.269875 65.5321 0.318942 65.3767 0.310764 65.2254C0.302586 65.0782 0.106321 64.9351 0.0981436 64.7838C0.0899664 64.6325 0.212632 64.4771 0.204454 64.3259C0.200365 64.1746 0.0654325 64.0274 0.0613439 63.8761C0.0572553 63.7248 0.253521 63.5653 0.249431 63.414C0.245343 63.2628 0.114499 63.1156 0.114499 62.9643C0.11041 62.813 0.126765 62.6617 0.122677 62.5104C0.118587 62.3591 -0.0122555 62.2119 -0.0122555 62.0606C-0.0163441 61.9093 0.0449885 61.754 0.0449885 61.6027C0.0449885 61.4514 0.0204554 61.3001 0.0204554 61.1488C0.0204554 60.9975 0.0817882 60.8462 0.0817882 60.695C0.0858768 60.5437 0.139031 60.3965 0.143121 60.2452C0.14721 60.0939 0.118587 59.9385 0.122677 59.7872C0.126765 59.6359 0.0449887 59.4847 0.0490773 59.3334C0.0531659 59.1821 0.278053 59.039 0.282142 58.8877C0.286232 58.7364 0.102232 58.5769 0.11041 58.4256C0.118587 58.2744 0.0695211 58.119 0.0776993 57.9677C0.0858765 57.8164 0.335297 57.6815 0.343475 57.5302C0.355742 57.3789 0.269875 57.2235 0.282142 57.0722C0.29032 56.9209 0.249431 56.7656 0.257609 56.6143C0.269875 56.463 0.449786 56.3281 0.462052 56.1768C0.474318 56.0255 0.363919 55.866 0.376186 55.7147C0.392541 55.5634 0.286232 55.3999 0.298497 55.2527C0.314853 55.1014 0.310764 54.946 0.327119 54.7988C0.339386 54.6475 0.363919 54.4963 0.380275 54.345C0.39663 54.1937 0.453874 54.0506 0.470229 53.8993C0.486585 53.748 0.527473 53.6008 0.543829 53.4495C0.564273 53.2982 0.703294 53.1633 0.723738 53.0161C0.744183 52.8648 0.727826 52.7094 0.748271 52.5622C0.768715 52.4109 0.85867 52.2719 0.879115 52.1206C0.899559 51.9734 0.969069 51.8303 0.993603 51.679C1.01405 51.5318 1.00996 51.3765 1.03449 51.2293C1.05902 51.078 1.07947 50.9308 1.104 50.7836C1.12853 50.6323 1.18169 50.4892 1.21031 50.342C1.23485 50.1907 1.25938 50.0435 1.28391 49.8922C1.31253 49.745 1.12853 49.5569 1.15716 49.4097C1.18578 49.2584 1.20622 49.1112 1.23893 48.9599C1.26756 48.8127 1.38204 48.6819 1.41067 48.5347C1.43929 48.3834 1.3984 48.2199 1.43111 48.0727C1.45973 47.9255 1.52106 47.7824 1.55378 47.6352C1.58649 47.488 1.61511 47.3408 1.64782 47.1936C1.68053 47.0464 1.86862 46.9319 1.90542 46.7847C1.93813 46.6375 1.84817 46.4617 1.88497 46.3145C1.91768 46.1673 2.11395 46.0609 2.15075 45.9137C2.18755 45.7665 2.06488 45.5785 2.10168 45.4313C2.13848 45.2882 2.14257 45.1287 2.17937 44.9856C2.22026 44.8384 2.22026 44.683 2.26115 44.5358C2.29795 44.3886 2.3879 44.2578 2.43288 44.1106C2.47377 43.9675 2.46968 43.808 2.51057 43.6608C2.55146 43.5177 2.57599 43.3664 2.62097 43.2192C2.66186 43.0761 2.89083 42.9861 2.93581 42.843C2.98079 42.6958 2.87039 42.5036 2.91536 42.3605C2.96443 42.2174 3.02985 42.0784 3.07483 41.9353C3.1239 41.7922 3.32016 41.6941 3.36514 41.5509C3.4142 41.4078 3.46736 41.2688 3.51643 41.1257C3.56549 40.9826 3.62274 40.8436 3.6718 40.7005C3.72087 40.5573 3.79856 40.4224 3.85171 40.2834C3.90078 40.1403 3.90487 39.9808 3.95802 39.8377C4.01118 39.6987 4.09295 39.5678 4.14611 39.4247C4.19926 39.2857 4.15429 39.1058 4.20744 38.9668C4.2606 38.8237 4.19517 38.6356 4.24833 38.4925C4.30557 38.3535 4.58771 38.3044 4.64495 38.1613C4.70219 38.0223 4.56317 37.8056 4.62042 37.6624C4.67766 37.5234 4.89028 37.4498 4.94752 37.3108C5.00886 37.1718 4.97206 36.9919 5.03339 36.8528C5.09472 36.7138 5.11108 36.5544 5.17241 36.4153C5.22966 36.2804 5.47908 36.2232 5.54041 36.0841C5.60174 35.9451 5.46272 35.7202 5.52814 35.5812C5.58948 35.4422 5.74485 35.3482 5.81027 35.2132C5.87161 35.0742 5.80618 34.8779 5.87161 34.7389C5.93703 34.604 6.10467 34.514 6.17009 34.3791C6.23551 34.2442 6.25596 34.0847 6.32547 33.9498C6.39089 33.8148 6.48902 33.6922 6.55853 33.5572C6.62396 33.4223 6.82431 33.3528 6.89382 33.2219C6.96333 33.087 6.9388 32.903 7.00831 32.7722C7.08191 32.6372 7.13915 32.4982 7.21275 32.3633C7.28226 32.2324 7.42537 32.1384 7.49897 32.0035C7.57257 31.8726 7.56439 31.6927 7.63799 31.5619C7.71159 31.431 7.78519 31.3002 7.86288 31.1693C7.93648 31.0385 7.91603 30.8504 7.98963 30.7196C8.06732 30.5887 8.34127 30.5724 8.41896 30.4415C8.49256 30.3107 8.46394 30.1185 8.54163 29.9877C8.61932 29.8568 8.70518 29.7342 8.78287 29.6033C8.86056 29.4766 9.04865 29.4152 9.13042 29.2844C9.20811 29.1576 9.24491 29.0022 9.32669 28.8755C9.40847 28.7487 9.44527 28.5934 9.52704 28.4666C9.60882 28.3399 9.75602 28.254 9.84188 28.1272C9.92366 28.0005 10.0463 27.9023 10.1322 27.7797C10.2181 27.6529 10.1813 27.4444 10.263 27.3217C10.3489 27.195 10.4429 27.0764 10.5288 26.9537C10.6147 26.827 10.7087 26.7084 10.7946 26.5857C10.8805 26.4631 10.9949 26.3568 11.0849 26.2341C11.1708 26.1114 11.2076 25.9479 11.2975 25.8252C11.3834 25.7066 11.4611 25.5717 11.551 25.4531C11.641 25.3305 11.6778 25.1669 11.7677 25.0483C11.8577 24.9257 12.1521 24.9584 12.2461 24.8398C12.3361 24.7171 12.2911 24.4922 12.3852 24.3737C12.4792 24.2551 12.6591 24.206 12.7531 24.0874C12.8472 23.9689 12.8758 23.7971 12.9699 23.6786C13.0639 23.56 13.2724 23.5354 13.3665 23.4169C13.4646 23.3024 13.4728 23.1143 13.5668 22.9957C13.665 22.8812 13.8163 22.8076 13.9103 22.6931C14.0084 22.5787 14.0084 22.3783 14.1066 22.2638C14.2047 22.1493 14.2701 22.0021 14.3682 21.8917C14.4664 21.7772 14.589 21.6791 14.6872 21.5646C14.7894 21.4542 14.9243 21.3684 15.0266 21.258C15.1247 21.1435 15.1738 20.984 15.276 20.8695C15.3782 20.7591 15.5745 20.7387 15.6808 20.6242C15.783 20.5138 15.9343 20.4484 16.0365 20.338C16.1428 20.2317 16.1428 20.0272 16.2491 19.9168C16.3554 19.8064 16.4086 19.651 16.5149 19.5406C16.6212 19.4343 16.8747 19.4711 16.981 19.3607C17.0873 19.2544 17.1936 19.1481 17.3 19.0418C17.4063 18.9314 17.4717 18.7842 17.5821 18.6779C17.6884 18.5757 17.8274 18.498 17.9378 18.3958C18.0441 18.2894 18.1055 18.1341 18.2159 18.0319C18.3263 17.9255 18.4857 17.8765 18.5961 17.7743C18.7065 17.672 18.8455 17.6025 18.96 17.5003C19.0704 17.3981 19.0582 17.165 19.1686 17.0628C19.283 16.9606 19.467 16.9401 19.5774 16.8379C19.6919 16.7357 19.8105 16.6457 19.925 16.5476C20.0395 16.4454 20.019 16.196 20.1335 16.0978C20.248 15.9997 20.5301 16.0937 20.6446 15.9956C20.7591 15.8975 20.8123 15.7257 20.9268 15.6276C21.0413 15.5295 21.2212 15.509 21.3397 15.415C21.4542 15.3169 21.5319 15.1737 21.6464 15.0756C21.765 14.9816 21.8304 14.8221 21.949 14.724C22.0635 14.6299 22.1984 14.5522 22.317 14.4582C22.4356 14.3641 22.5746 14.2987 22.6932 14.2088C22.8117 14.1147 22.8567 13.9226 22.9794 13.8326C23.0979 13.7386 23.2656 13.7099 23.3842 13.62C23.5068 13.5259 23.5763 13.3706 23.699 13.2806C23.8217 13.1906 23.9443 13.1007 24.067 13.0107C24.1856 12.9208 24.4023 12.9617 24.529 12.8717C24.6517 12.7859 24.6599 12.5364 24.7826 12.4506C24.9052 12.3647 25.0565 12.3115 25.1833 12.2257C25.3059 12.1398 25.5226 12.1848 25.6453 12.0989C25.7721 12.0131 25.8538 11.8659 25.9806 11.7841C26.1033 11.6982 26.2791 11.6859 26.4058 11.6042C26.5326 11.5183 26.5367 11.2525 26.6634 11.1667C26.7902 11.0849 26.921 11.0113 27.0478 10.9254C27.1786 10.8436 27.3749 10.8764 27.5057 10.7946C27.6325 10.7128 27.747 10.6106 27.8778 10.5288C28.0046 10.4511 28.1272 10.3652 28.2581 10.2835C28.3848 10.2058 28.4584 10.03 28.5852 9.95227C28.716 9.87459 28.9246 9.92774 29.0554 9.85005C29.1863 9.77236 29.3007 9.67014 29.4275 9.59246C29.5583 9.51477 29.6646 9.3921 29.7955 9.3185C29.9263 9.24081 30.1553 9.33486 30.2862 9.26126C30.417 9.18766 30.5356 9.08544 30.6664 9.01184C30.7973 8.93824 30.9404 8.88508 31.0753 8.81148C31.2061 8.73788 31.2757 8.55389 31.4106 8.48029C31.5414 8.41078 31.7091 8.39851 31.844 8.32491C31.9749 8.2554 32.0444 8.05914 32.1752 7.98554C32.3101 7.91602 32.4492 7.8506 32.5841 7.78109C32.719 7.71158 32.9194 7.76883 33.0543 7.69932C33.1892 7.62981 33.226 7.37221 33.361 7.30679C33.5 7.23728 33.6676 7.23319 33.8026 7.16368C33.9375 7.09825 34.0888 7.05737 34.2237 6.99194C34.3587 6.92652 34.5386 6.94697 34.6776 6.88155C34.8125 6.81612 34.972 6.79977 35.111 6.73843C35.2459 6.67301 35.3032 6.43177 35.4381 6.37044C35.5771 6.30502 35.7816 6.3827 35.9165 6.32137C36.0555 6.25595 36.1332 6.05969 36.2722 5.99835C36.4113 5.93702 36.5421 5.85933 36.6811 5.798C36.8201 5.73667 37.0082 5.78164 37.1473 5.7244C37.2863 5.66307 37.4294 5.60991 37.5684 5.54858C37.7074 5.49133 37.8751 5.49542 38.0141 5.43818C38.1572 5.38094 38.2308 5.16014 38.3698 5.10289C38.5088 5.04156 38.7133 5.13969 38.8564 5.08245C38.9954 5.02521 39.1058 4.89027 39.2489 4.83303C39.3879 4.77578 39.5106 4.66539 39.6496 4.61223C39.7927 4.55499 39.989 4.63676 40.1321 4.57952C40.2752 4.52636 40.3529 4.30148 40.496 4.24832C40.6391 4.19517 40.8027 4.19517 40.9458 4.14201C41.0889 4.08886 41.2198 4.01117 41.3629 3.9621C41.506 3.90895 41.6491 3.8517 41.7922 3.79855C41.9353 3.74948 42.0661 3.6677 42.2093 3.61864C42.3565 3.56957 42.4955 3.51233 42.6427 3.46326C42.7858 3.41829 42.933 3.38149 43.0802 3.33242C43.2233 3.28335 43.3705 3.24655 43.5136 3.19749C43.6608 3.15251 43.8203 3.1566 43.9675 3.11162C44.1106 3.06664 44.2741 3.07073 44.4172 3.02984C44.5644 2.98487 44.6626 2.79269 44.8098 2.74771C44.957 2.70274 45.1001 2.64958 45.2432 2.60869C45.3904 2.56371 45.5458 2.54327 45.6889 2.50238C45.8361 2.46149 46.0201 2.55145 46.1673 2.51056C46.3145 2.46967 46.4208 2.28158 46.5639 2.2407C46.7111 2.2039 46.8705 2.19981 47.0177 2.16301C47.1649 2.12212 47.3326 2.17527 47.4798 2.13847C47.6311 2.10167 47.7578 1.9831 47.905 1.9463C48.0522 1.9095 48.228 1.98719 48.3752 1.95448C48.5224 1.92176 48.6737 1.90132 48.8209 1.86861C48.9722 1.8359 49.1399 1.89723 49.2871 1.86452C49.4383 1.83181 49.5692 1.73777 49.7205 1.70505C49.8677 1.67643 50.0026 1.5783 50.1539 1.54968C50.3011 1.52106 50.4647 1.55377 50.6119 1.52515C50.7591 1.49652 50.8776 1.29617 51.0289 1.26755C51.1761 1.23893 51.3438 1.31252 51.495 1.28799C51.6422 1.25937 51.7731 1.11217 51.9203 1.08764C52.0716 1.0631 52.2474 1.19804 52.3987 1.1735C52.55 1.14897 52.7094 1.18577 52.8566 1.16124C53.0079 1.1367 53.1551 1.10399 53.3064 1.08355C53.4577 1.05902 53.5967 0.960884 53.7439 0.94044C53.8952 0.919995 54.0628 1.00995 54.21 0.993595C54.3613 0.973151 54.4881 0.764619 54.6394 0.748263C54.7907 0.727819 54.9501 0.793241 55.1014 0.776886C55.2527 0.756441 55.3958 0.678753 55.5471 0.662398C55.6984 0.646042 55.8538 0.646042 56.0051 0.633775C56.1563 0.61742 56.3158 0.695109 56.4671 0.678753C56.6184 0.666486 56.7574 0.51111 56.9087 0.498844C57.06 0.486577 57.2276 0.682842 57.3789 0.670575C57.5302 0.658308 57.6733 0.54791 57.8246 0.539732C57.9759 0.527465 58.1231 0.470221 58.2744 0.462043C58.4297 0.453866 58.5851 0.592886 58.7405 0.584709C58.8918 0.576532 59.039 0.486577 59.1903 0.4784C59.3416 0.47431 59.4928 0.47431 59.6441 0.470221C59.7954 0.466133 59.9467 0.396621 60.098 0.392533C60.2493 0.388444 60.4006 0.4048 60.5519 0.400711C60.7072 0.396621 60.8585 0.273956 61.0098 0.273956C61.1611 0.273956 61.3124 0.335289 61.4637 0.335289C61.615 0.335289 61.7703 0.425244 61.9216 0.429332C62.0729 0.429332 62.2242 0.498844 62.3755 0.502932C62.5268 0.502932 62.6821 0.363911 62.8334 0.368C62.9847 0.372089 63.1319 0.498844 63.2832 0.507021C63.4345 0.51111 63.594 0.335289 63.7453 0.339378C63.8965 0.343467 64.0478 0.372089 64.1991 0.376177C64.3504 0.384356 64.4935 0.592886 64.6448 0.601065C64.7961 0.609243 64.9474 0.609243 65.0987 0.621509C65.25 0.629687 65.4012 0.625597 65.5525 0.633775C65.7038 0.646042 65.8592 0.637864 66.0064 0.650131C66.1618 0.662398 66.3131 0.662398 66.4643 0.674665C66.6156 0.68693 66.7587 0.744175 66.91 0.76053C67.0613 0.772797 67.2208 0.727819 67.3721 0.744175C67.5234 0.76053 67.6787 0.715553 67.83 0.731908C67.9813 0.752352 68.1367 0.719641 68.288 0.735997C68.4393 0.756441 68.5905 0.764619 68.7418 0.780974C68.8931 0.801418 69.0158 1.03448 69.163 1.05493C69.3143 1.07537 69.4778 0.997683 69.6291 1.02222C69.7804 1.04266 69.9235 1.08355 70.0748 1.10808C70.2261 1.12853 70.3896 1.07128 70.5368 1.09582C70.6881 1.12035 70.8149 1.27164 70.9662 1.30026C71.1134 1.32479 71.2974 1.16533 71.4487 1.18986C71.5959 1.21848 71.7512 1.22257 71.8984 1.25119C72.0497 1.27981 72.156 1.52923 72.3032 1.55786C72.4545 1.58648 72.6099 1.56603 72.7612 1.59466C72.9084 1.62737 73.0842 1.52923 73.2314 1.56195C73.3827 1.59466 73.5217 1.66008 73.6689 1.69279C73.8161 1.7255 73.9837 1.69279 74.1309 1.7255C74.2781 1.7623 74.4131 1.84816 74.5603 1.88497C74.7075 1.91768 74.8342 2.04852 74.9814 2.08532C75.1286 2.12212 75.2922 2.08532 75.4394 2.12621C75.5866 2.16301 75.7011 2.33474 75.8483 2.37154C75.9914 2.41243 76.1999 2.23252 76.3471 2.27341C76.4902 2.31429 76.5843 2.54736 76.7315 2.58825C76.8746 2.62914 77.0218 2.67003 77.169 2.715C77.3121 2.75589 77.4552 2.81313 77.5983 2.85811C77.7455 2.899 77.8886 2.94398 78.0317 2.98896C78.1789 3.03393 78.3179 3.09527 78.461 3.14024C78.6082 3.18522 78.8209 3.02167 78.964 3.07073C79.1071 3.11571 79.1929 3.3406 79.3361 3.38966C79.4833 3.43873 79.6059 3.54504 79.749 3.59411C79.8921 3.64317 80.0843 3.55322 80.2274 3.60228C80.3705 3.65135 80.5545 3.59411 80.6936 3.64317C80.8367 3.69633 80.9184 3.91304 81.0616 3.96619C81.2047 4.01935 81.3723 4.00299 81.5154 4.05615C81.6585 4.1093 81.7935 4.17881 81.9325 4.23606C82.0756 4.28921 82.1737 4.45276 82.3127 4.51001C82.4559 4.56725 82.6807 4.41188 82.8239 4.46912C82.9629 4.52228 83.0774 4.65312 83.2164 4.71036C83.3554 4.76761 83.429 4.98432 83.568 5.04156C83.707 5.10289 83.8461 5.16423 83.9851 5.22556C84.1241 5.2828 84.3245 5.20103 84.4635 5.26236C84.6025 5.32369 84.6843 5.51178 84.8233 5.57311C84.9623 5.63444 85.1341 5.62218 85.2731 5.68351C85.408 5.74893 85.5184 5.8716 85.6574 5.93702C85.7924 5.99835 85.9396 6.04333 86.0786 6.10875C86.2135 6.17417 86.3566 6.23142 86.4916 6.29684C86.6265 6.36226 86.741 6.47266 86.88 6.53808C87.0149 6.60759 87.2439 6.4931 87.3788 6.55853C87.5138 6.62804 87.6283 6.73435 87.7632 6.80386C87.8981 6.87337 88.0044 7.00421 88.1394 7.07372C88.2702 7.14323 88.3356 7.34359 88.4706 7.41719C88.6014 7.4867 88.769 7.49896 88.8999 7.57256C89.0348 7.64616 89.2066 7.64616 89.3415 7.71976C89.4723 7.79336 89.6113 7.85878 89.7422 7.93238C89.873 8.00598 90.0161 8.06731 90.147 8.145C90.2778 8.2186 90.3228 8.4394 90.4537 8.513C90.5845 8.59069 90.7848 8.5498 90.9157 8.62749C91.0465 8.70517 91.0956 8.9178 91.2264 8.99548C91.3532 9.07317 91.5699 9.01593 91.6967 9.09362C91.8275 9.17539 91.9093 9.33077 92.036 9.41255C92.1628 9.49023 92.3018 9.55974 92.4286 9.64152C92.5553 9.7233 92.6657 9.82961 92.7925 9.91139C92.9233 9.99316 93.0623 10.0545 93.1891 10.1363C93.3159 10.2181 93.5366 10.1608 93.6634 10.2467C93.7902 10.3325 93.876 10.4756 93.9987 10.5615C94.1254 10.6474 94.199 10.8068 94.3217 10.8927C94.4485 10.9786 94.6038 11.0236 94.7265 11.1094C94.8492 11.1994 94.9228 11.3588 95.0454 11.4447C95.1681 11.5347 95.2621 11.6614 95.3848 11.7514C95.5075 11.8372 95.6751 11.8699 95.7937 11.9599C95.9164 12.0499 96.0881 12.0744 96.2108 12.1643C96.3293 12.2543 96.4438 12.3606 96.5624 12.4506C96.6851 12.5446 96.8159 12.6223 96.9345 12.7123C97.0572 12.8063 97.1185 12.9739 97.2371 13.068C97.3556 13.162 97.5396 13.1702 97.6582 13.2642C97.7768 13.3583 97.8299 13.5341 97.9485 13.6322C98.0671 13.7263 98.1979 13.804 98.3165 13.898C98.431 13.9962 98.615 14.0166 98.7295 14.1106C98.8481 14.2088 98.9953 14.266 99.1138 14.3641C99.2283 14.4623 99.2242 14.6994 99.3387 14.7976C99.4532 14.8998 99.58 14.9857 99.6945 15.0838C99.809 15.186 100.022 15.1697 100.136 15.2719C100.251 15.37 100.271 15.5704 100.385 15.6726C100.5 15.7748 100.578 15.9138 100.688 16.016C100.803 16.1183 101.06 16.061 101.171 16.1632C101.281 16.2655 101.322 16.4454 101.432 16.5517C101.543 16.6539 101.645 16.7684 101.755 16.8706C101.862 16.9769 102.005 17.0505 102.111 17.1568C102.221 17.2591 102.25 17.4471 102.36 17.5535C102.467 17.6598 102.532 17.807 102.643 17.9133C102.749 18.0196 102.921 18.0646 103.027 18.1709C103.133 18.2772 103.293 18.3344 103.399 18.4407C103.505 18.547 103.501 18.7638 103.607 18.8701C103.714 18.9805 103.963 18.9518 104.07 19.0582C104.172 19.1686 104.143 19.4098 104.245 19.5202C104.348 19.6306 104.577 19.6224 104.683 19.7328C104.785 19.8432 104.83 20.0109 104.932 20.1213C105.035 20.2357 105.137 20.3461 105.239 20.4565C105.337 20.571 105.366 20.7469 105.468 20.8613C105.566 20.9758 105.648 21.1026 105.75 21.2171C105.848 21.3316 106.102 21.3111 106.2 21.4256C106.302 21.5401 106.257 21.7772 106.355 21.8958C106.453 22.0103 106.551 22.1207 106.65 22.2393C106.748 22.3538 106.801 22.5051 106.899 22.6195C106.993 22.7381 107.292 22.6931 107.386 22.8117C107.48 22.9262 107.435 23.1593 107.529 23.2779C107.623 23.3964 107.835 23.421 107.929 23.5395C108.023 23.6581 107.974 23.8912 108.064 24.0098C108.158 24.1283 108.346 24.1774 108.436 24.296C108.53 24.4186 108.629 24.5331 108.719 24.6558C108.809 24.7744 108.825 24.9543 108.915 25.0769C109.005 25.1955 109.119 25.2977 109.209 25.4204C109.299 25.5431 109.377 25.6739 109.463 25.7966C109.553 25.9193 109.712 25.9929 109.802 26.1155C109.888 26.2382 109.986 26.3568 110.076 26.4794C110.162 26.6021 110.252 26.7248 110.338 26.8474C110.424 26.9742 110.509 27.0968 110.595 27.2236C110.681 27.3503 110.788 27.4607 110.873 27.5834C110.959 27.7102 111.078 27.8165 111.16 27.9391C111.245 28.0659 111.164 28.299 111.245 28.4257C111.331 28.5525 111.421 28.6751 111.503 28.8019C111.585 28.9286 111.712 29.0268 111.793 29.1535C111.875 29.2844 112.01 29.3784 112.088 29.5052C112.17 29.636 112.268 29.7546 112.345 29.8854C112.423 30.0122 112.435 30.1839 112.513 30.3148C112.591 30.4415 112.554 30.6419 112.632 30.7727C112.709 30.8995 112.955 30.9322 113.028 31.063C113.106 31.1939 113.159 31.3411 113.233 31.4719C113.306 31.6028 113.335 31.7622 113.408 31.8931C113.482 32.0239 113.527 32.1752 113.601 32.306C113.67 32.441 113.736 32.5759 113.809 32.7108C113.883 32.8417 114.071 32.9153 114.144 33.0461C114.214 33.1811 114.304 33.3037 114.378 33.4387C114.447 33.5736 114.431 33.7535 114.496 33.8884C114.566 34.0193 114.672 34.1378 114.741 34.2728C114.807 34.4077 114.942 34.5099 115.007 34.649C115.077 34.7839 115.011 34.9842 115.081 35.1192C115.146 35.2541 115.244 35.3768 115.31 35.5117C115.375 35.6466 115.457 35.7775 115.518 35.9165C115.584 36.0514 115.604 36.2109 115.666 36.3499C115.731 36.4849 115.792 36.6239 115.854 36.7629C115.915 36.8978 116.038 37.0123 116.099 37.1513C116.16 37.2863 116.197 37.4376 116.258 37.5766C116.32 37.7156 116.377 37.8546 116.434 37.9936C116.496 38.1327 116.479 38.3044 116.536 38.4434C116.598 38.5824 116.819 38.656 116.876 38.7951C116.933 38.9341 116.97 39.0854 117.027 39.2244C117.084 39.3634 117.007 39.5597 117.06 39.6987C117.117 39.8418 117.223 39.9604 117.277 40.1035C117.33 40.2425 117.424 40.3693 117.477 40.5124C117.534 40.6555 117.44 40.8517 117.489 40.9908C117.542 41.1339 117.583 41.277 117.636 41.4201C117.69 41.5632 117.968 41.6245 118.017 41.7677C118.066 41.9108 117.914 42.1234 117.963 42.2665C118.013 42.4096 118.258 42.4873 118.307 42.6304C118.356 42.7735 118.254 42.9657 118.303 43.1088C118.348 43.256 118.503 43.3623 118.548 43.5095C118.593 43.6526 118.483 43.8448 118.532 43.992C118.577 44.1351 118.646 44.27 118.691 44.4131C118.736 44.5603 118.728 44.7198 118.769 44.8629C118.814 45.0101 119.088 45.0878 119.129 45.2309C119.17 45.3781 119.145 45.5417 119.186 45.6889C119.227 45.8361 119.321 45.9669 119.362 46.1141C119.403 46.2572 119.296 46.4412 119.337 46.5884C119.374 46.7356 119.354 46.8992 119.39 47.0423C119.427 47.1895 119.685 47.2794 119.722 47.4266C119.758 47.5738 119.697 47.7456 119.73 47.8928C119.767 48.04 119.767 48.1953 119.803 48.3425C119.836 48.4897 119.987 48.6124 120.02 48.7596C120.053 48.9068 119.942 49.0867 119.975 49.2339C120.008 49.3852 120.188 49.4997 120.221 49.6469C120.253 49.7941 120.245 49.9535 120.278 50.1007C120.306 50.2479 120.343 50.3951 120.376 50.5464C120.405 50.6936 120.449 50.8408 120.478 50.988C120.503 51.1352 120.535 51.2865 120.564 51.4337C120.589 51.585 120.539 51.7445 120.564 51.8957C120.593 52.0429 120.584 52.1983 120.609 52.3496C120.633 52.4968 120.638 52.6481 120.662 52.7994C120.687 52.9466 120.809 53.0815 120.83 53.2328C120.854 53.38 120.797 53.5436 120.817 53.6948C120.838 53.842 120.846 53.9933 120.867 54.1446C120.887 54.2959 120.997 54.4308 121.018 54.5821C121.034 54.7334 121.042 54.8847 121.059 55.036C121.079 55.1873 121.132 55.3304 121.149 55.4817C121.165 55.633 121.034 55.8006 121.051 55.9478C121.063 56.0991 121.149 56.2422 121.161 56.3935C121.177 56.5448 121.108 56.7042 121.124 56.8555C121.136 57.0027 121.312 57.1417 121.325 57.293C121.337 57.4443 121.198 57.6038 121.21 57.7551C121.218 57.9064 121.345 58.0495 121.353 58.2008C121.365 58.352 121.312 58.5074 121.32 58.6587C121.329 58.81 121.488 58.9531 121.496 59.1044C121.504 59.2557 121.271 59.4192 121.28 59.5705C121.284 59.7218 121.3 59.869 121.304 60.0203C121.308 60.1716 121.525 60.3188 121.529 60.4701C121.533 60.6214 121.484 60.7726 121.488 60.9239C121.492 61.0752 121.521 61.2265 121.521 61.3778C121.525 61.5291 121.341 61.6845 121.341 61.8357C121.345 61.987 121.57 62.1383 121.57 62.2896C121.57 62.4409 121.312 62.5922 121.312 62.7435C121.308 62.8948 121.545 63.046 121.541 63.1973C121.541 63.3486 121.464 63.4999 121.459 63.6512C121.455 63.8025 121.459 63.9538 121.455 64.1051C121.451 64.2563 121.488 64.4117 121.484 64.563C121.476 64.7143 121.517 64.8656 121.513 65.0169C121.504 65.1682 121.341 65.3113 121.337 65.4626C121.329 65.6138 121.431 65.7733 121.423 65.9246C121.41 66.0759 121.398 66.2272 121.39 66.3785C121.378 66.5298 121.198 66.6688 121.185 66.8201C121.177 66.9673 121.304 67.1308 121.292 67.2821C121.28 67.4334 121.259 67.5847 121.247 67.736C121.235 67.8832 121.255 68.0385 121.239 68.1898C121.226 68.3411 121.001 68.472 120.985 68.6232C120.969 68.7704 120.961 68.9217 120.94 69.073C120.924 69.2243 120.973 69.3797 120.957 69.531C120.936 69.6823 120.834 69.8213 120.813 69.9726C120.797 70.1198 120.94 70.2915 120.92 70.4428C120.899 70.5941 120.748 70.7249 120.728 70.8762C120.707 71.0234 120.764 71.187 120.744 71.3342C120.719 71.4854 120.601 71.6204 120.58 71.7676C120.556 71.9189 120.58 72.0742 120.556 72.2255C120.531 72.3727 120.613 72.5404 120.584 72.6917C120.56 72.8389 120.625 73.0065 120.597 73.1537C120.572 73.305 120.331 73.4154 120.302 73.5626C120.274 73.7139 120.302 73.8733 120.274 74.0205C120.245 74.1677 120.2 74.3149 120.167 74.4621C120.139 74.6134 120.225 74.7852 120.192 74.9323C120.163 75.0836 119.955 75.194 119.922 75.3412C119.889 75.4884 120.045 75.6806 120.012 75.8278C119.979 75.975 119.816 76.0936 119.783 76.2449C119.746 76.3921 119.824 76.5679 119.787 76.7151C119.754 76.8623 119.767 77.0218 119.73 77.169C119.693 77.3202 119.448 77.4143 119.411 77.5615C119.374 77.7087 119.362 77.8641 119.321 78.0113C119.284 78.1585 119.211 78.2934 119.174 78.4406C119.133 78.5878 119.157 78.7513 119.117 78.8985C119.076 79.0457 119.149 79.2256 119.108 79.3688C119.067 79.516 118.814 79.6018 118.773 79.749C118.732 79.8962 118.924 80.1088 118.883 80.256C118.838 80.4032 118.614 80.4932 118.569 80.6404C118.528 80.7876 118.626 80.9757 118.581 81.1188C118.536 81.266 118.368 81.3723 118.323 81.5154C118.278 81.6626 118.168 81.7894 118.123 81.9325C118.078 82.0756 118.286 82.3046 118.242 82.4477C118.192 82.5949 117.992 82.6889 117.947 82.832C117.898 82.9792 117.988 83.1673 117.939 83.3104C117.89 83.4576 117.628 83.5271 117.579 83.6702C117.53 83.8133 117.583 83.9933 117.534 84.1364C117.481 84.2795 117.534 84.4594 117.485 84.6025C117.432 84.7456 117.182 84.8192 117.129 84.9623C117.076 85.1054 117.052 85.2567 116.998 85.3957C116.945 85.5388 117.048 85.7392 116.994 85.8823C116.937 86.0254 116.7 86.0949 116.643 86.238C116.59 86.3811 116.561 86.5324 116.504 86.6715C116.451 86.8146 116.336 86.929 116.279 87.0722C116.222 87.2112 116.369 87.4361 116.312 87.5751C116.25 87.7141 116.222 87.8695 116.16 88.0085C116.103 88.1475 115.939 88.2457 115.882 88.3847C115.821 88.5237 115.862 88.7077 115.8 88.8467C115.739 88.9857 115.625 89.1002 115.563 89.2393C115.502 89.3783 115.347 89.4764 115.281 89.6154C115.22 89.7544 115.318 89.963 115.257 90.102C115.191 90.241 115.007 90.3228 114.946 90.4618C114.88 90.6008 114.909 90.7807 114.848 90.9198C114.782 91.0547 114.553 91.116 114.488 91.251C114.423 91.39 114.517 91.6026 114.451 91.7416C114.382 91.8766 114.279 91.9951 114.214 92.1301C114.144 92.2691 113.956 92.3427 113.887 92.4776C113.817 92.6126 113.789 92.7679 113.719 92.9029C113.646 93.0378 113.584 93.1768 113.515 93.3117C113.445 93.4426 113.286 93.5325 113.212 93.6634C113.143 93.7983 113.094 93.9455 113.02 94.0764C112.946 94.2113 112.877 94.3421 112.803 94.4771C112.73 94.6079 112.668 94.751 112.595 94.8819C112.521 95.0127 112.46 95.1517 112.382 95.2826C112.309 95.4175 112.325 95.6015 112.247 95.7324C112.174 95.8632 112.145 96.0227 112.067 96.1535C111.99 96.2843 111.916 96.4152 111.838 96.546C111.761 96.6769 111.695 96.8159 111.618 96.9467C111.54 97.0776 111.425 97.1839 111.348 97.3147C111.266 97.4456 111.045 97.4865 110.963 97.6132C110.886 97.7441 110.894 97.9281 110.812 98.0548C110.73 98.1816 110.661 98.3206 110.579 98.4474C110.497 98.5741 110.481 98.7458 110.399 98.8726C110.313 98.9993 110.191 99.1016 110.109 99.2283C110.023 99.351 109.982 99.5105 109.896 99.6331C109.81 99.7599 109.606 99.8048 109.52 99.9275C109.434 100.054 109.369 100.193 109.283 100.32C109.197 100.443 109.144 100.594 109.058 100.717C108.968 100.843 108.878 100.962 108.788 101.085C108.698 101.211 108.653 101.363 108.563 101.485C108.473 101.608 108.314 101.678 108.224 101.8C108.13 101.923 108.105 102.095 108.011 102.213C107.921 102.336 107.774 102.418 107.684 102.536C107.59 102.659 107.41 102.708 107.316 102.831C107.226 102.949 107.292 103.195 107.198 103.313C107.103 103.432 106.891 103.456 106.797 103.575C106.703 103.697 106.686 103.877 106.588 103.996C106.494 104.115 106.425 104.254 106.327 104.368C106.228 104.487 105.983 104.478 105.885 104.597C105.791 104.711 105.717 104.85 105.619 104.965C105.521 105.079 105.529 105.288 105.431 105.402C105.333 105.517 105.28 105.672 105.178 105.787C105.079 105.901 104.9 105.946 104.797 106.061C104.699 106.175 104.564 106.257 104.462 106.372C104.36 106.482 104.266 106.605 104.164 106.715C104.061 106.83 103.873 106.858 103.771 106.973C103.669 107.083 103.644 107.267 103.542 107.377C103.436 107.488 103.272 107.541 103.166 107.651C103.064 107.762 103.06 107.966 102.957 108.077C102.851 108.187 102.655 108.207 102.548 108.318C102.442 108.424 102.454 108.645 102.348 108.755C102.242 108.862 102.033 108.874 101.927 108.98C101.821 109.087 101.69 109.168 101.579 109.275C101.473 109.385 101.461 109.585 101.355 109.692C101.244 109.798 101.032 109.798 100.921 109.9C100.815 110.007 100.753 110.162 100.643 110.268C100.533 110.37 100.455 110.505 100.345 110.612C100.23 110.714 100.152 110.853 100.042 110.955C99.9316 111.061 99.7967 111.135 99.6822 111.237C99.5718 111.34 99.4818 111.466 99.3714 111.568C99.257 111.671 99.1425 111.769 99.028 111.871C98.9135 111.973 98.7499 112.014 98.6355 112.112C98.521 112.215 98.5005 112.419 98.386 112.521C98.2715 112.619 98.0589 112.607 97.9444 112.705C97.8299 112.803 97.6909 112.873 97.5723 112.971C97.4579 113.069 97.4292 113.265 97.3107 113.363C97.1962 113.462 97.1062 113.592 96.9917 113.691C96.8732 113.789 96.775 113.907 96.6605 114.005C96.542 114.099 96.2598 113.993 96.1412 114.087C96.0227 114.185 95.9327 114.312 95.8141 114.406C95.6956 114.5 95.7078 114.758 95.5893 114.852C95.4666 114.946 95.254 114.917 95.1354 115.011C95.0127 115.101 94.9064 115.212 94.7837 115.302C94.6652 115.396 94.4689 115.387 94.3503 115.482C94.2277 115.571 94.1132 115.67 93.9905 115.76C93.8719 115.85 93.8229 116.042 93.7002 116.132C93.5775 116.222 93.4998 116.369 93.3772 116.455C93.2545 116.545 93.0378 116.508 92.9151 116.598C92.7925 116.684 92.6494 116.741 92.5226 116.831C92.3999 116.917 92.3304 117.084 92.2078 117.17C92.0851 117.256 91.9502 117.326 91.8234 117.416C91.7008 117.501 91.6762 117.73 91.5495 117.816C91.4227 117.902 91.2878 117.972 91.161 118.057C91.0384 118.143 90.9034 118.217 90.7767 118.303C90.6499 118.385 90.4455 118.348 90.3187 118.43C90.192 118.515 90.0816 118.622 89.9548 118.704C89.8281 118.789 89.6563 118.802 89.5296 118.888C89.4028 118.969 89.3292 119.133 89.2025 119.215C89.0716 119.296 89.0021 119.468 88.8754 119.55C88.7445 119.632 88.6137 119.709 88.4869 119.791C88.3561 119.869 88.1843 119.877 88.0535 119.955C87.9267 120.037 87.8082 120.139 87.6814 120.216C87.5506 120.294 87.3257 120.216 87.1948 120.294C87.064 120.372 86.9781 120.515 86.8473 120.593C86.7164 120.67 86.6674 120.887 86.5365 120.965C86.4057 121.042 86.1767 120.952 86.0459 121.026C85.915 121.104 85.7596 121.132 85.6247 121.206C85.4939 121.28 85.4162 121.447 85.2853 121.525C85.1504 121.598 85.0891 121.795 84.9541 121.868C84.8233 121.942 84.5943 121.84 84.4594 121.913C84.3285 121.987 84.259 122.175 84.1241 122.244C83.9892 122.318 83.8379 122.359 83.707 122.428C83.5721 122.502 83.429 122.555 83.2941 122.625C83.1632 122.698 82.9792 122.682 82.8484 122.752C82.7135 122.821 82.5826 122.899 82.4477 122.968C82.3127 123.038 82.1778 123.103 82.0429 123.173C81.9079 123.242 81.818 123.402 81.6831 123.471C81.5481 123.541 81.3723 123.524 81.2374 123.59C81.0984 123.659 81.0125 123.823 80.8776 123.888C80.7385 123.958 80.62 124.056 80.485 124.121C80.346 124.191 80.162 124.154 80.023 124.219C79.8881 124.285 79.7531 124.354 79.6182 124.42C79.4792 124.485 79.3524 124.571 79.2175 124.632C79.0785 124.698 78.9108 124.702 78.7759 124.763C78.6369 124.829 78.5224 124.935 78.3834 125C78.2443 125.062 78.1544 125.229 78.0194 125.295C77.8804 125.356 77.721 125.377 77.5819 125.438C77.447 125.499 77.3039 125.556 77.1649 125.618C77.0259 125.679 76.8378 125.626 76.6987 125.687C76.5597 125.749 76.4616 125.9 76.3226 125.961C76.1836 126.018 76.0609 126.117 75.9219 126.174C75.7788 126.235 75.6888 126.403 75.5498 126.464C75.4067 126.521 75.1654 126.337 75.0264 126.395C74.8833 126.456 74.8056 126.66 74.6666 126.718C74.5276 126.779 74.3517 126.746 74.2086 126.804C74.0696 126.861 73.9878 127.061 73.8488 127.118C73.7057 127.176 73.579 127.262 73.4358 127.319C73.2968 127.376 73.0924 127.27 72.9493 127.327C72.8102 127.38 72.6998 127.515 72.5567 127.572C72.4177 127.625 72.2664 127.658 72.1233 127.711C71.9802 127.764 71.8821 127.932 71.7431 127.985C71.5999 128.038 71.3873 127.912 71.2442 127.965C71.1052 128.018 70.9784 128.112 70.8353 128.165C70.6922 128.218 70.5982 128.402 70.4592 128.455C70.316 128.509 70.1484 128.492 70.0053 128.545C69.8622 128.599 69.6823 128.541 69.5392 128.59C69.3961 128.644 69.3102 128.852 69.1671 128.901C69.024 128.954 68.8931 129.044 68.75 129.093C68.6069 129.142 68.4229 129.077 68.2798 129.13C68.1367 129.179 67.9609 129.13 67.8178 129.179C67.6746 129.232 67.5315 129.277 67.3843 129.326C67.2412 129.375 67.1431 129.555 67 129.604C66.8569 129.653 66.7301 129.752 66.5829 129.801C66.4398 129.85 66.2926 129.878 66.1454 129.927C66.0023 129.977 65.8224 129.915 65.6793 129.96C65.5321 130.009 65.3603 129.964 65.2172 130.009C65.07 130.058 64.9556 130.218 64.8124 130.267C64.8533 130.41 64.8656 130.573 64.9106 130.721C64.9515 130.868 65.115 130.978 65.16 131.13C65.2009 131.273 65.1232 131.453 65.1682 131.6C65.2091 131.747 65.3317 131.87 65.3767 132.017C65.4217 132.164 65.4176 132.324 65.4626 132.471C65.5116 132.618 65.4339 132.802 65.4789 132.949C65.528 133.096 65.667 133.215 65.712 133.362C65.7611 133.505 65.8755 133.632 65.9246 133.779C65.9696 133.926 65.8674 134.123 65.9164 134.266C65.9655 134.413 66.125 134.523 66.174 134.671C66.2231 134.818 66.1659 134.998 66.2149 135.145C66.264 135.292 66.3621 135.423 66.4112 135.566C66.4603 135.713 66.6524 135.807 66.7056 135.95C66.7546 136.098 66.7996 136.245 66.8487 136.388C66.9018 136.535 66.9509 136.682 67.0041 136.825C67.0531 136.973 66.9755 137.165 67.0245 137.304C67.0818 137.455 67.094 137.614 67.1431 137.754C67.1962 137.905 67.4048 137.991 67.4538 138.13C67.5111 138.281 67.4906 138.42 67.5397 138.555C67.3843 138.567 67.2576 138.567 67.1022 138.584C66.9509 138.596 66.8078 138.755 66.6565 138.768C66.5011 138.78 66.3458 138.747 66.1945 138.759C66.0391 138.772 65.8837 138.821 65.7324 138.833C65.5771 138.849 65.4094 138.682 65.254 138.69C65.0987 138.702 64.9433 138.69 64.792 138.702C64.6366 138.714 64.4894 138.866 64.3381 138.874C64.1828 138.886 64.0233 138.833 63.872 138.841C63.7166 138.849 63.5653 138.915 63.4141 138.923C63.2587 138.931 63.1033 138.853 62.9479 138.857C62.7966 138.866 62.6413 138.878 62.49 138.886C62.3346 138.89 62.1833 139.037 62.0279 139.041C61.8726 139.041 61.7172 138.956 61.5659 138.96C61.4105 138.96 61.2551 138.907 61.1039 138.907C60.9485 138.907 60.7972 138.845 60.6418 138.845C60.4905 138.841 60.3311 139.013 60.1798 139.009C60.0244 139.005 59.869 139.062 59.7177 139.054C59.5624 139.05 59.4152 138.943 59.2598 138.935C59.1085 138.927 58.9654 138.808 58.81 138.796C58.6587 138.784 58.5074 138.776 58.3561 138.763C58.2049 138.751 58.0372 138.882 57.8859 138.87C57.7346 138.853 57.5874 138.804 57.4361 138.788C57.2849 138.772 57.1336 138.755 56.9782 138.735C56.8269 138.714 56.6879 138.633 56.5325 138.612C56.3812 138.588 56.2422 138.49 56.0909 138.465C55.9437 138.445 55.7883 138.453 55.6371 138.428C55.4858 138.404 55.3222 138.453 55.1709 138.424C55.0237 138.4 54.8724 138.371 54.7211 138.338C54.5699 138.31 54.3818 138.289 54.2264 138.261C54.2182 138.036 54.2877 138.032 54.3532 137.815C54.4227 137.602 54.394 137.594 54.4595 137.377C54.529 137.165 54.6639 137.206 54.7334 136.993C54.8029 136.776 54.7089 136.748 54.7743 136.531C54.8438 136.314 54.8193 136.31 54.8888 136.093C54.9583 135.877 55.0442 135.901 55.1096 135.689C55.1791 135.472 55.0851 135.443 55.1505 135.227C55.22 135.01 55.3754 135.059 55.4449 134.846C55.5144 134.63 55.3958 134.593 55.4653 134.376C55.5348 134.159 55.4735 134.139 55.543 133.922C55.6084 133.706 55.727 133.742 55.7924 133.53C55.8619 133.309 55.866 133.313 55.9355 133.096C56.001 132.88 55.9315 132.855 56.001 132.638C56.0705 132.426 56.1236 132.442 56.1931 132.225C56.2626 132.009 56.3035 132.021 56.373 131.804C56.4426 131.588 56.4916 131.604 56.5611 131.387C56.6266 131.17 56.3935 131.097 56.463 130.88C56.5325 130.659 56.5039 130.639 56.5898 130.43C56.6797 130.214 56.8392 130.271 56.8351 130.042Z" fill="#94DFFF"/>
</g>
<path d="M18.3879 87.9856C17.4189 87.9856 16.4989 87.4254 16.0818 86.4972C15.9796 86.3091 15.8978 86.1538 15.8324 85.9902C15.7547 85.7899 15.7056 85.6059 15.677 85.4546C15.6239 85.3524 15.5666 85.2379 15.5176 85.0988L15.4726 84.9966C15.4235 84.8862 15.3785 84.7758 15.3376 84.6613L15.17 84.2157C15.1169 84.0644 15.0801 83.9253 15.0555 83.8068C14.9819 83.6718 14.9042 83.5124 14.8388 83.3243C14.7611 83.0953 14.7243 82.8868 14.7039 82.715C14.663 82.621 14.6221 82.5188 14.5853 82.4043L14.5444 82.2898C14.5117 82.1958 14.479 82.1017 14.4504 82.0077C14.3686 81.8155 14.3113 81.6683 14.2623 81.5129C14.2132 81.3453 14.1764 81.1776 14.1478 81.0059C14.1437 80.9977 14.1478 81.0059 14.1519 81.0263C14.1233 80.9241 14.0987 80.8178 14.0701 80.7115L14.0456 80.6216C13.9761 80.4376 13.9229 80.2904 13.882 80.1391C13.8125 79.8896 13.788 79.6729 13.7716 79.5217V79.5135C13.7471 79.4399 13.7266 79.3622 13.7062 79.2845C13.6285 79.0882 13.5754 78.9247 13.5345 78.757C13.4936 78.6057 13.4731 78.4667 13.4568 78.3522C13.3995 78.2091 13.3382 78.0374 13.2891 77.837C13.2605 77.7144 13.2401 77.5835 13.2155 77.4568L13.1992 77.3668C13.1665 77.2114 13.146 77.0683 13.1338 76.9539C13.0806 76.8148 13.0274 76.6431 12.9866 76.4427C12.9498 76.2751 12.9293 76.1034 12.913 75.9316C12.913 75.9153 12.917 75.9316 12.9211 75.9562C12.8925 75.809 12.8721 75.6577 12.8598 75.5064C12.8394 75.3878 12.823 75.2774 12.8066 75.1629L12.7903 75.0771C12.7371 74.8849 12.6962 74.7254 12.6676 74.566C12.6554 74.4801 12.6431 74.3901 12.6308 74.3002C12.5613 74.1285 12.4918 73.9036 12.4509 73.6378C12.4182 73.4374 12.4141 73.2575 12.4141 73.1144C12.3814 72.9958 12.3487 72.8568 12.3283 72.6974C12.3037 72.5093 12.2996 72.3375 12.2996 72.1985C12.2669 72.0677 12.2342 71.9205 12.2138 71.7528C12.1851 71.5034 12.1892 71.2908 12.1974 71.1477V71.1395C12.1811 71.0291 12.1647 70.9187 12.1524 70.8083C12.1197 70.6407 12.0952 70.4894 12.0788 70.3381C12.0625 70.1745 12.0625 70.0232 12.0666 69.9006C12.0298 69.7575 11.9971 69.5816 11.9807 69.3854C11.9643 69.2096 11.9684 69.0256 11.9766 68.8416C11.9766 68.8416 11.9766 68.862 11.9807 68.9152C11.9725 68.7884 11.9684 68.6698 11.9725 68.5472C11.9357 68.3918 11.8989 68.1955 11.8826 67.9665C11.8744 67.7785 11.8826 67.6108 11.8948 67.4759C11.8703 67.345 11.8499 67.1897 11.8417 67.0179C11.8335 66.7685 11.8539 66.56 11.8744 66.4169C11.8621 66.2983 11.8539 66.1797 11.8539 66.0611C11.8499 65.9589 11.8539 65.8526 11.8539 65.7463C11.8212 65.5787 11.7885 65.3619 11.7844 65.1125C11.7844 64.859 11.8131 64.6423 11.8376 64.4951V64.4869C11.8376 64.442 11.8376 64.4011 11.8376 64.3602C11.8049 64.1925 11.7722 63.9636 11.7763 63.6896C11.7763 63.5097 11.7967 63.3298 11.8212 63.154V63.1417C11.8171 63.0068 11.8131 62.8718 11.8171 62.7369L11.8294 62.2626C11.8335 62.1481 11.8417 62.0336 11.8539 61.9191L11.8621 61.7924C11.8662 61.6452 11.8826 61.5143 11.903 61.4039C11.8826 61.2404 11.8703 61.0523 11.8826 60.8397C11.8948 60.6598 11.9235 60.4839 11.9562 60.304C11.9562 60.304 11.9562 60.3163 11.9521 60.3367C11.9643 60.2182 11.9766 60.0996 11.993 59.981L12.0052 59.8911C12.0093 59.797 12.0216 59.6948 12.0298 59.5926L12.0379 59.5026C12.0339 59.2982 12.0339 59.1224 12.0502 58.9506V58.8934C12.0543 58.7544 12.0584 58.6153 12.0747 58.4804C12.1034 58.1737 12.177 57.9243 12.2301 57.7608C12.2383 57.724 12.2424 57.6872 12.2506 57.6504C12.2424 57.495 12.2383 57.2987 12.2669 57.0698L12.2874 56.9021C12.2915 56.8326 12.2996 56.759 12.3078 56.6895C12.3078 56.4769 12.316 56.297 12.3405 56.117C12.3569 56.0189 12.3732 55.9167 12.3896 55.8145L12.4836 55.1807C12.5041 55.0417 12.5327 54.8986 12.5695 54.7555L12.5818 54.69C12.6186 54.4733 12.6758 54.2852 12.7208 54.1462C12.733 54.0236 12.7494 53.905 12.7698 53.7823L12.8598 53.2385C12.8762 53.1117 12.8925 52.9809 12.917 52.8541C12.9334 52.6783 12.9538 52.527 12.9825 52.3798C13.0356 52.11 13.1215 51.8851 13.191 51.7256C13.2074 51.6357 13.2237 51.5498 13.2401 51.4639L13.2728 51.3045C13.2769 51.2718 13.285 51.235 13.2932 51.1982C13.2932 51.0264 13.3096 50.7974 13.3709 50.5276C13.3995 50.3845 13.4404 50.2455 13.4854 50.1064L13.5058 50.041C13.5386 49.8979 13.5835 49.763 13.6244 49.6526C13.6367 49.5054 13.6571 49.3336 13.7062 49.1456C13.7389 49.0147 13.7757 48.888 13.8166 48.7612L13.8411 48.6794C13.8698 48.569 13.9025 48.4504 13.9393 48.336L13.9842 48.1601C14.0129 48.0293 14.0415 47.8985 14.0742 47.7717C14.111 47.6327 14.156 47.5018 14.205 47.3669C14.2255 47.2279 14.2541 47.0521 14.3073 46.8558C14.3481 46.7127 14.3972 46.5818 14.4463 46.4714C14.4626 46.312 14.4953 46.1321 14.5526 45.9358C14.6262 45.6864 14.7243 45.4819 14.8061 45.3347C14.8143 45.2857 14.8306 45.2366 14.8429 45.1875C14.8633 45.0322 14.9001 44.8195 14.9737 44.5824C15.0596 44.3166 15.1659 44.1122 15.2313 43.9813C15.2436 43.9527 15.2559 43.9241 15.264 43.8955C15.2845 43.7115 15.3254 43.4825 15.4112 43.229C15.4889 43 15.5789 42.8201 15.6361 42.7056L15.7792 42.2763C15.816 42.1495 15.8569 42.0228 15.9019 41.9001C15.9469 41.7693 16.0041 41.6384 16.0614 41.5076L16.09 41.4421C16.135 41.3236 16.1922 41.1968 16.2576 41.066C16.2863 40.931 16.3312 40.7634 16.4008 40.5794L16.5684 40.1378C16.6175 40.0029 16.6747 39.8884 16.7279 39.7903C16.7606 39.6308 16.8096 39.4468 16.8873 39.2464C16.9323 39.1401 16.9814 39.0297 17.0304 38.9193L17.0795 38.8212C17.1531 38.6372 17.2349 38.4859 17.3044 38.3714C17.3412 38.2447 17.3862 38.1056 17.4516 37.9503L17.4598 37.9176C17.5047 37.7785 17.5538 37.6436 17.6111 37.5087L17.8032 37.0793C17.8482 36.9771 17.8932 36.879 17.9422 36.7849L18.0036 36.65C18.0731 36.4946 18.1549 36.3474 18.2407 36.2002L18.2571 36.1634C18.3021 36.0408 18.3511 35.9181 18.4043 35.7995L18.4166 35.7627C18.4656 35.6278 18.5188 35.4929 18.5801 35.3661C18.666 35.1821 18.7559 35.0349 18.8336 34.9163C18.8745 34.7978 18.9236 34.6628 18.9931 34.5156C19.0708 34.3603 19.1485 34.2294 19.218 34.1231C19.2629 33.9882 19.3202 33.8328 19.402 33.6692C19.4633 33.5384 19.5369 33.4116 19.6105 33.2849L19.8395 32.8351C19.9458 32.6266 20.0603 32.4589 20.138 32.3485C20.1911 32.234 20.2402 32.1237 20.2974 32.0133L20.3751 31.8661C20.4078 31.7965 20.4405 31.727 20.4773 31.6575C20.555 31.4653 20.6204 31.31 20.6981 31.1628C20.8208 30.9338 20.9557 30.7539 21.058 30.6271C21.1029 30.5372 21.1479 30.4513 21.1929 30.3614C21.8635 29.1388 23.3968 28.689 24.6234 29.3555C25.846 30.022 26.2999 31.5471 25.6375 32.7738L25.5966 32.8556C25.5434 32.9619 25.4903 33.0723 25.4371 33.1745C25.3308 33.3667 25.2204 33.5261 25.1264 33.6447C25.0814 33.751 25.0364 33.8451 24.9873 33.9391L24.7461 34.4216C24.697 34.5279 24.648 34.6342 24.5948 34.7364C24.4885 34.949 24.374 35.1126 24.2963 35.2189L24.1532 35.5051C24.1082 35.5992 24.0592 35.685 24.0101 35.775C23.9651 35.9263 23.9038 36.1144 23.8016 36.3229C23.7239 36.4865 23.638 36.6255 23.5603 36.7359C23.5235 36.8504 23.4745 36.9771 23.4131 37.1121C23.315 37.3165 23.2087 37.48 23.1269 37.6027C23.086 37.7008 23.0451 37.799 23.0002 37.8971L22.9756 37.9707C22.9307 38.0852 22.8857 38.1956 22.8366 38.306C22.7671 38.4573 22.6894 38.6045 22.6035 38.7476C22.5995 38.7558 22.5995 38.7476 22.6076 38.7312C22.5749 38.8089 22.5381 38.8866 22.4972 38.9643L22.2478 39.5327C22.2233 39.6103 22.1947 39.6921 22.166 39.7698C22.1292 39.9211 22.0761 40.1174 21.982 40.3422C21.8798 40.5917 21.7612 40.7838 21.6795 40.9065C21.6754 40.9147 21.6713 40.9229 21.6713 40.927C21.6427 41.1069 21.5895 41.3318 21.4955 41.573C21.4055 41.802 21.2992 41.9819 21.2256 42.1045L21.1765 42.2395C21.1438 42.3908 21.0988 42.5829 21.0171 42.8037C20.9516 42.9755 20.874 43.139 20.7922 43.2985C20.7554 43.3925 20.7145 43.4825 20.6736 43.5765L20.6327 43.6828C20.6 43.8014 20.5632 43.9159 20.5223 44.0304L20.3792 44.4475C20.3506 44.5415 20.3138 44.6315 20.2729 44.7214C20.2525 44.885 20.2157 45.0812 20.1421 45.2939C20.1012 45.4247 20.048 45.5555 19.9949 45.6782L19.9703 45.7395C19.9213 45.8908 19.864 46.0258 19.8109 46.1362C19.7863 46.2547 19.7577 46.3938 19.7086 46.545L19.7045 46.5778C19.6718 46.7127 19.6391 46.8435 19.6023 46.9744C19.5573 47.1134 19.5083 47.2442 19.4592 47.3505C19.4388 47.4937 19.4101 47.6531 19.3611 47.8249C19.3079 48.0048 19.2425 48.1642 19.1812 48.291C19.1648 48.4014 19.1403 48.524 19.1035 48.6631C19.0626 48.8103 19.0054 48.9616 18.9481 49.1128L18.944 49.1456C18.9195 49.2682 18.895 49.3868 18.8622 49.5054C18.8336 49.6158 18.8009 49.7221 18.7682 49.8284L18.7396 49.9306C18.715 50.0165 18.6905 50.1064 18.6619 50.1923C18.6537 50.3559 18.6333 50.5644 18.5801 50.7934C18.5188 51.055 18.4329 51.2595 18.3757 51.3903C18.3634 51.4271 18.3552 51.4639 18.343 51.5007C18.3389 51.6561 18.3225 51.8524 18.2734 52.0732L18.159 52.6497C18.1426 52.7437 18.1262 52.8378 18.1099 52.9318C18.0608 53.169 17.9913 53.3652 17.9259 53.5165C17.9177 53.6065 17.9014 53.6964 17.885 53.7823L17.8768 53.86C17.8605 53.9786 17.8441 54.1012 17.8237 54.2198L17.746 54.69C17.7337 54.8209 17.7215 54.9517 17.701 55.0826C17.656 55.3483 17.5865 55.561 17.5334 55.7C17.5211 55.7654 17.5047 55.8349 17.4884 55.9044L17.3616 56.7181C17.3616 56.9103 17.3535 57.0779 17.333 57.2415L17.3044 57.5113C17.3126 57.6667 17.3167 57.8712 17.2921 58.1124C17.2758 58.2351 17.2553 58.3537 17.2349 58.4722L17.2226 58.5581C17.1981 58.7871 17.1449 58.9915 17.0999 59.1428C17.0959 59.2 17.0959 59.2532 17.0918 59.3104C17.0999 59.5108 17.0999 59.6825 17.0836 59.8461L17.0427 60.2795C17.0345 60.4022 17.0182 60.5207 17.0059 60.6352L16.9936 60.7252C16.9895 60.8111 16.9773 60.8969 16.965 60.9869C16.9895 61.1545 17.0059 61.359 16.9936 61.5879C16.9814 61.8496 16.9323 62.0663 16.8996 62.2135C16.8955 62.2503 16.8914 62.2871 16.8914 62.328L16.871 62.8923V62.9577C16.8791 63.0804 16.8791 63.203 16.8791 63.3257C16.8751 63.4443 16.8669 63.5669 16.8505 63.6855C16.871 63.8286 16.8914 64.0004 16.8873 64.2007L16.8914 64.3561C16.8955 64.446 16.8955 64.5401 16.8955 64.6341C16.8955 64.7854 16.8873 64.9204 16.871 65.0348C16.8955 65.1698 16.9119 65.3292 16.9159 65.5051C16.9159 65.6236 16.9159 65.7463 16.9078 65.869V65.9548L16.9119 66.0489C16.9241 66.1552 16.9282 66.2656 16.9323 66.376C16.9405 66.5354 16.9323 66.6786 16.92 66.7971C16.9446 66.928 16.965 67.0793 16.9732 67.2469C16.9814 67.4064 16.9732 67.5536 16.965 67.6762C16.9895 67.803 17.0141 67.9502 17.0223 68.1137C17.0345 68.2691 17.0304 68.4245 17.0263 68.584C17.0263 68.6003 17.0263 68.5881 17.0223 68.5676C17.0304 68.6698 17.0304 68.7721 17.0304 68.8784C17.0713 69.0256 17.1081 69.2055 17.1245 69.414C17.1449 69.6266 17.1408 69.8106 17.1286 69.9496C17.1531 70.06 17.1695 70.1704 17.1817 70.2808L17.1981 70.4199C17.2144 70.5139 17.2267 70.612 17.239 70.7102C17.2553 70.8655 17.2594 71.0046 17.2594 71.1191C17.2921 71.2458 17.3289 71.3971 17.3494 71.5688C17.3739 71.761 17.378 71.9327 17.3739 72.0758C17.4025 72.1822 17.4271 72.3007 17.4475 72.4316C17.4639 72.5624 17.4761 72.6851 17.4761 72.7914C17.5252 72.9345 17.5702 73.0981 17.6029 73.2861C17.6233 73.417 17.6397 73.5519 17.6479 73.6828L17.6519 73.6869C17.6969 73.8545 17.7337 73.9935 17.7583 74.1366C17.7787 74.2348 17.791 74.3288 17.8032 74.4228L17.8278 74.566C17.8564 74.7091 17.8727 74.8522 17.8891 74.9994C17.9054 75.1139 17.9218 75.2284 17.9341 75.3428C17.9872 75.4778 18.0445 75.6454 18.0854 75.8417C18.1222 76.0216 18.1467 76.2056 18.159 76.3896C18.1671 76.4346 18.1753 76.4795 18.1835 76.5204C18.253 76.6717 18.3307 76.868 18.3879 77.101C18.4329 77.2932 18.4574 77.4609 18.4697 77.5958C18.5147 77.7226 18.5515 77.837 18.5801 77.9515L18.6987 78.3686C18.7518 78.5649 18.7764 78.7448 18.7927 78.8838C18.8377 79.0024 18.8704 79.1046 18.899 79.2068C18.9277 79.3009 18.9522 79.399 18.9767 79.493L19.0094 79.6239C19.0503 79.767 19.083 79.9142 19.1117 80.0614C19.173 80.2086 19.218 80.3272 19.2589 80.4498L19.3038 80.5888C19.3243 80.6461 19.3447 80.7033 19.3652 80.7606C19.451 80.9405 19.5205 81.0999 19.5737 81.2594C19.6269 81.4189 19.6596 81.5702 19.6841 81.701C19.7373 81.8114 19.7945 81.9382 19.8436 82.0772C19.9294 82.3184 19.9703 82.531 19.9908 82.6864L20.1216 83.0135C20.1461 83.0708 20.1707 83.1321 20.1952 83.1894C20.2688 83.3202 20.3588 83.4838 20.4405 83.6923C20.5141 83.8926 20.5632 84.0725 20.5918 84.2197C20.6409 84.3179 20.6859 84.4119 20.7227 84.506C21.2542 85.794 20.6368 87.2659 19.3447 87.7934C19.0299 87.9242 18.7069 87.9856 18.3879 87.9856ZM19.3938 80.8424C19.3938 80.8464 19.3938 80.8505 19.3979 80.8587C19.3938 80.8546 19.3938 80.8464 19.3938 80.8424ZM17.2921 57.6217L17.2839 57.679C17.288 57.6585 17.288 57.6422 17.2921 57.6217ZM21.1397 42.3417L21.1234 42.3785C21.1275 42.3662 21.1356 42.354 21.1397 42.3417Z" fill="white"/>
</svg>
