<svg width="379" height="345" viewBox="0 0 379 345" fill="none" xmlns="http://www.w3.org/2000/svg">
<path d="M194.755 105.949C194.755 105.949 232.807 0.0325759 302.766 0.0325759C302.766 0.0325759 321.229 -1.85284 323.172 23.0638C323.932 32.8555 326.891 42.3607 332.26 50.5847C334.896 54.6263 338.234 59.0326 342.432 63.5117C352.635 74.3972 358.229 88.9545 357.005 103.824C355.974 116.345 350.266 129.741 333.432 138.272C333.432 138.272 273.745 160.913 194.755 125.454V105.949Z" fill="#F40612"/>
<mask id="mask0_2_2" style="mask-type:luminance" maskUnits="userSpaceOnUse" x="194" y="111" width="185" height="234">
<path d="M194.484 111.496H378.349V344.793H194.484V111.496Z" fill="white"/>
</mask>
<g mask="url(#mask0_2_2)">
<path d="M200.948 111.762C192.349 114.038 193.021 148.517 201.031 176.736C210.839 211.288 230.776 236.85 239.62 245.106C258.401 262.652 264.568 263.553 274 279.184C293.161 310.934 281.839 344.652 286.005 345.007C289.26 345.288 297.167 324.908 298.755 301.673C300.651 273.85 292.844 251.288 286.234 237.069C297.182 237.428 312 238.991 328.464 244.079C352.385 251.47 368.87 262.934 378.354 270.741C375.437 262.501 369.917 250.168 358.911 238.022C345.755 223.501 333.052 218.392 303.917 201.835C277.036 186.559 263.594 178.923 253.5 170.882C215.927 140.954 209.359 109.543 200.948 111.762Z" fill="#F40612"/>
</g>
<path d="M214.948 122.111C214.646 126.642 246.307 135.449 272.943 137.251C297.172 138.887 327.495 137.824 339.896 122.303C340.594 121.428 346.797 113.465 343.646 108.017C342.771 106.496 339.078 101.559 315.12 103.022C293.917 104.314 283.906 108.975 264.307 113.553C232.188 121.053 215.177 118.798 214.948 122.111Z" fill="#FF3131"/>
<path d="M210.948 101.793C210.948 101.793 221.615 84.2878 233.182 74.5847C246.328 63.5638 250.505 65.2097 251.62 65.8034C253.547 66.8451 257.495 72.1367 234.156 85.7201C221.76 92.9336 210.948 101.793 210.948 101.793Z" fill="#FF3131"/>
<path d="M212.266 107.991C212.266 107.991 227 108.642 237.443 105.621C249.307 102.194 249.995 99.0326 250.083 98.1263C250.245 96.5586 248.661 92.0794 231.182 100.569C221.896 105.085 212.266 107.991 212.266 107.991Z" fill="#FF3131"/>
<path d="M313.656 24.1211C309.865 21.6419 305.969 19.5326 301.88 18.2878C297.818 17.0169 293.641 16.4753 289.589 16.819C285.526 17.1576 281.589 18.2826 277.786 19.9284C273.995 21.5951 270.333 23.7669 266.729 26.1419C264.917 27.3138 263.13 28.5742 261.333 29.8347L255.922 33.668C252.396 36.1784 249.005 38.8919 245.693 41.7357C239.078 47.4336 232.953 53.7826 226.917 60.5378C230.406 52.1576 235.557 44.4701 241.714 37.6576C244.802 34.2565 248.177 31.1003 251.766 28.2044C253.562 26.7565 255.323 25.4388 257.13 24.0482C258.969 22.7097 260.818 21.3711 262.75 20.1003C266.62 17.5794 270.729 15.2409 275.234 13.569C279.729 11.9128 284.63 10.9388 289.521 11.1419C294.411 11.3451 299.177 12.7513 303.297 15.0482C307.406 17.3867 310.948 20.4753 313.656 24.1211Z" fill="#F2687C"/>
<path d="M183.594 105.949C183.594 105.949 145.547 0.0325759 75.5885 0.0325759C75.5885 0.0325759 57.125 -1.85284 55.1823 23.0638C54.4218 32.8555 51.4635 42.3607 46.0937 50.5847C43.4583 54.6263 40.1198 59.0326 35.9218 63.5117C25.7135 74.3972 20.125 88.9545 21.3489 103.824C22.3802 116.345 28.0885 129.741 44.9218 138.272C44.9218 138.272 104.604 160.913 183.594 125.454V105.949Z" fill="#F40612"/>
<mask id="mask1_2_2" style="mask-type:luminance" maskUnits="userSpaceOnUse" x="0" y="111" width="185" height="234">
<path d="M0 111.496H184.427V344.793H0V111.496Z" fill="white"/>
</mask>
<g mask="url(#mask1_2_2)">
<path d="M177.406 111.762C186.005 114.038 185.328 148.517 177.318 176.736C167.51 211.288 147.417 236.684 138.734 245.106C123.854 259.538 113.781 263.553 104.354 279.184C85.1875 310.934 96.5156 344.652 92.3438 345.007C89.0938 345.288 81.1823 324.908 79.599 301.673C77.6979 273.85 85.5104 251.288 92.1146 237.069C81.1719 237.428 66.349 238.991 49.8906 244.079C25.974 251.47 9.47917 262.934 0 270.741C2.91146 262.501 8.4375 250.168 19.4427 238.022C32.599 223.501 45.2969 218.392 74.4375 201.835C101.318 186.559 114.76 178.923 124.849 170.882C162.427 140.954 168.995 109.543 177.406 111.762Z" fill="#F40612"/>
</g>
<path d="M163.401 122.111C163.708 126.642 132.047 135.449 105.406 137.251C81.1823 138.887 50.8594 137.824 38.4583 122.303C37.7604 121.428 31.5521 113.465 34.7031 108.017C35.5833 106.496 39.276 101.559 63.2292 103.022C84.4323 104.314 94.4479 108.975 114.047 113.553C146.167 121.053 163.177 118.798 163.401 122.111Z" fill="#FF3131"/>
<path d="M167.406 101.793C167.406 101.793 156.745 84.2878 145.172 74.5847C132.026 63.5638 127.849 65.2097 126.74 65.8034C124.807 66.8451 120.859 72.1367 144.198 85.7201C156.594 92.9336 167.406 101.793 167.406 101.793Z" fill="#FF3131"/>
<path d="M166.089 107.991C166.089 107.991 151.354 108.642 140.911 105.621C129.047 102.194 128.359 99.0326 128.266 98.1263C128.109 96.5586 129.693 92.0794 147.172 100.569C156.458 105.085 166.089 107.991 166.089 107.991Z" fill="#FF3131"/>
<path d="M64.6979 24.1211C67.4062 20.4753 70.9427 17.3867 75.052 15.0482C79.1823 12.7513 83.9427 11.3451 88.8281 11.1419C93.7239 10.9388 98.6198 11.9128 103.12 13.569C107.625 15.2409 111.734 17.5794 115.604 20.1003C117.531 21.3711 119.385 22.7097 121.219 24.0482C123.036 25.4388 124.792 26.7565 126.589 28.2044C130.177 31.1003 133.552 34.2565 136.641 37.6576C142.797 44.4701 147.948 52.1576 151.432 60.5378C145.401 53.7826 139.271 47.4336 132.661 41.7357C129.349 38.8919 125.958 36.1784 122.427 33.668L117.021 29.8347C115.229 28.5742 113.437 27.3138 111.62 26.1419C108.021 23.7669 104.365 21.5951 100.562 19.9284C96.7656 18.2826 92.8281 17.1576 88.7656 16.819C84.7135 16.4753 80.5364 17.0169 76.4739 18.2878C72.3802 19.5326 68.4895 21.6419 64.6979 24.1211Z" fill="#F2687C"/>
<path d="M214.141 110.298C214.141 96.2878 202.781 84.9336 188.771 84.9336C174.76 84.9336 163.406 96.2878 163.406 110.298C163.406 124.303 174.76 135.663 188.771 135.663C202.781 135.663 214.141 124.303 214.141 110.298Z" fill="#DD000B"/>
<path d="M206.672 92.3242C207.849 95.2513 208.505 98.444 208.505 101.793C208.505 115.803 197.146 127.163 183.135 127.163C176.151 127.163 169.828 124.335 165.24 119.767C168.995 129.085 178.115 135.663 188.771 135.663C202.781 135.663 214.135 124.303 214.135 110.298C214.135 103.272 211.281 96.918 206.672 92.3242Z" fill="#FF3131"/>
<path d="M146.771 162.548C142.885 168.704 138.141 174.199 133 179.283C127.839 184.35 122.24 188.975 116.281 193.085C110.339 197.215 104.036 200.835 97.4739 203.871C90.901 206.887 84.0781 209.371 76.9479 210.829C82.8698 206.605 88.8385 202.793 94.7135 198.897C100.594 195.017 106.406 191.116 112.167 187.132C117.932 183.163 123.625 179.09 129.333 174.954C135.057 170.835 140.74 166.605 146.771 162.548Z" fill="#F2687C"/>
<path d="M231.177 162.548C237.213 166.605 242.896 170.835 248.62 174.954C254.328 179.09 260.021 183.163 265.786 187.132C271.542 191.116 277.354 195.017 283.24 198.897C289.115 202.793 295.078 206.605 301.005 210.829C293.875 209.371 287.047 206.887 280.479 203.871C273.917 200.835 267.615 197.215 261.672 193.085C255.708 188.975 250.109 184.35 244.953 179.283C239.812 174.199 235.062 168.704 231.177 162.548Z" fill="#F2687C"/>
<path d="M194.302 92.6524C191.646 93.6836 189.49 94.4909 187.5 95.3763C185.516 96.2409 183.75 97.1576 182.031 98.1732C180.312 99.1784 178.661 100.277 176.922 101.579C175.161 102.876 173.401 104.366 171.182 106.152C170.552 103.34 171.182 100.496 172.484 98.0117C173.802 95.5221 175.875 93.3555 178.375 91.9232C180.849 90.4596 183.75 89.6992 186.573 89.7774C189.38 89.8815 192.172 90.7201 194.302 92.6524Z" fill="#F2687C"/>
</svg>
